<svg xmlns="http://www.w3.org/2000/svg" width="256" height="256"><path fill-opacity=".016" d="M0 128.004v128.004l128.25-.254 128.25-.254.254-127.75L257.008 0H0v128.004m.485.496c0 70.4.119 99.053.265 63.672.146-35.38.146-92.98 0-128C.604 29.153.485 58.1.485 128.5" fill="#1976D2" fill-rule="evenodd"/><path fill-opacity=".111" d="M112.528 5.114c-14.317 2.085-32.906 10.317-45 19.928-25.199 20.024-39.29 53.421-35.631 84.446 2.633 22.328 11.936 41.454 28.027 57.626 32.243 32.403 81.761 36.987 120.841 11.187 8.038-5.307 19.987-17.464 25.67-26.116 17.462-26.586 20.716-60.738 8.524-89.459C197.95 22.659 155.601-1.16 112.528 5.114m1.665 2.891C72.958 13.8 39.104 48.77 35.203 89.597c-2.708 28.338 6.821 55.232 26.537 74.899a93.732 93.732 0 0043.883 24.655c12.637 3.094 30.502 3.06 42.877-.081 28.061-7.124 50.516-25.557 62.407-51.226 5.474-11.816 7.198-19.408 7.801-34.344.797-19.739-2.957-35.259-12.439-51.426-4.699-8.012-18.781-22.989-26.621-28.313-8.154-5.537-20.631-11.215-30.055-13.678-9.12-2.384-26.125-3.382-35.4-2.078m7.307 4.874l-5 1.627.352 4.997c.194 2.748.555 5.329.802 5.735.248.407 2.789.632 5.648.5l5.198-.238-.1-6.3c-.054-3.464-.504-6.67-1-7.123-.495-.454-3.15-.092-5.9.802m10.4 2.221c-2.658 2.658-1.051 5.1 2.071 3.15 1.782-1.113 1.944-.857 2.225 3.525.414 6.434 3.039 6.583 3.946.225 1.114-7.803-3.487-11.655-8.242-6.9m-24.442.968c-.363.588-1.257.839-1.986.56-.729-.28-1.837.106-2.461.859-1.063 1.28-.409 2.74 4.651 10.383.135.204 1.898.06 3.918-.319l3.673-.689-.628-4.58c-.345-2.519-1.132-5.188-1.749-5.931-1.34-1.614-4.493-1.779-5.418-.283m36.713.761c-1.114 1.114-1.894 3.473-1.994 6.027-.174 4.431.915 5.438 6.811 6.301 2.482.362 2.915-.458 4.381-8.3.642-3.43.495-3.709-2.493-4.75-4.189-1.461-4.563-1.42-6.705.722m-49.84 2.674c-3.116 1.31-5.033 4.552-3.837 6.488C91.563 27.72 93.01 27.104 94 24.5c.523-1.375 1.374-2.5 1.892-2.5 1.456 0 1.902 2.321.792 4.118C95.18 28.552 96.592 31 99.5 31c3.28 0 4.072-2.148 2.601-7.059-1.483-4.95-3.633-6.178-7.77-4.438m61.869.697c-2.572 2.572-.385 6.029 2.368 3.744 2.265-1.881 2.616-.629.945 3.37-1.968 4.711-1.908 5.686.351 5.686 1.274 0 2.382-1.356 3.5-4.283 2.124-5.561 2.07-6.299-.587-8.16-2.661-1.864-4.946-1.988-6.577-.357m-47.594 2.216c.335.871 1.047 1.584 1.584 1.584 1.315 0 .492-2.273-1.003-2.771-.731-.244-.954.214-.581 1.187M146 23.5c0 .825.675 1.5 1.5 1.5s1.5-.675 1.5-1.5-.675-1.5-1.5-1.5-1.5.675-1.5 1.5m-63 1.286c-5.04 3.388-5.134 4.865-.624 9.788l3.376 3.685 3.124-1.845c3.812-2.252 3.916-4.259.491-9.435-2.974-4.495-2.954-4.488-6.367-2.193m84.204.783c-1.195.838-2.316 3.136-2.733 5.603-.576 3.409-.372 4.427 1.102 5.505 3.396 2.483 5.787 1.58 8.733-3.299l2.792-4.621-2.267-1.629c-3.749-2.692-5.497-3.05-7.627-1.559m-95.168 6.887c-.664.801-.871 2.003-.458 2.67.507.821.243 1.019-.817.613-2.203-.846-5.05 1.518-4.61 3.827.224 1.173 1.349 2.062 2.859 2.26 1.37.18 3.22 1.262 4.112 2.406 2.635 3.379 5.276 1.637 4.549-3-.436-2.787-.33-3.289.422-1.982 1.158 2.013 4.907 2.378 4.907.478C83 37.609 76.98 31 75.05 31c-.993 0-2.349.655-3.014 1.456M177 33.378c0 .757-.675 1.937-1.5 2.622-1.673 1.388-2.068 7-.493 7 .553 0 1.984 1.125 3.18 2.5 1.195 1.375 2.768 2.5 3.493 2.5.726 0 1.32.659 1.32 1.465 0 1.727 3.385 3.782 4.529 2.75.435-.393.465-.148.067.544-1.075 1.867.301 5.241 2.138 5.241 1.604 0 .904 1.39-.817 1.625l-1.838.25c-1.099.149-2.527 6.01-1.673 6.865.948.948 5.594-1.932 5.594-3.468 0-.765.437-1.12.971-.79 1.349.834 6.794-2.134 8.281-4.513.676-1.083 1.796-1.969 2.489-1.969 2.019 0 1.462-1.284-2.002-4.619-3.857-3.713-7.739-5.246-7.739-3.055 0 1.216-1.953 2.674-3.582 2.674-1.117 0-.232-4.91 1.082-6 .825-.685 1.5-1.838 1.5-2.563 0-2.34-1.873-2.564-3.964-.473-2.56 2.56-4.99 2.748-2.691.207 2.404-2.656 2.032-5.729-.98-8.098-3-2.36-7.365-2.772-7.365-.695m-67 2.929c-11.579 3.002-20.917 8.484-30.035 17.631C66.641 67.306 60.282 84.04 61.323 103c1.293 23.552 14.11 43.981 34.299 54.671 10.82 5.729 18.642 7.66 31.378 7.747 18.144.125 32.663-5.973 46.085-19.355 8.845-8.819 13.878-17.267 17.018-28.563 2.75-9.892 2.986-23.985.56-33.5C181.596 48.438 145.51 27.101 110 36.307m70.667.36c-.367.366-.653 1.829-.635 3.25.03 2.487.086 2.511 1.5.642 2.249-2.974 1.516-6.274-.865-3.892M60.05 44.759C57.523 46.804 58.152 50 61.081 50 62.633 50 66 45.584 66 43.55c0-1.231-3.922-.434-5.95 1.209M68 47.8c0 .532-.9 1.202-2 1.49-2.477.648-2.658 4.244-.259 5.164 2.018.774 5.516-2.886 5.051-5.284C70.466 47.492 68 46.282 68 47.8m-14.25 4.67c-3.281 4.512-1.449 8.576 4.54 10.071 2.004.5 3.343.196 4.75-1.077 3.212-2.907 2.491-6.104-2.02-8.951-4.843-3.058-5.077-3.059-7.27-.043m73.41 2.078c-.929 2.039-.854 3.144.376 5.522 1.395 2.696 1.383 3.298-.121 6.468-1.566 3.3-3.415 5.406-3.415 3.889 0-.38.953-2.233 2.118-4.119 2.117-3.425 2.117-3.429.128-5.618-1.095-1.204-2.273-2.865-2.618-3.69-.344-.825-.384.568-.089 3.096.406 3.475.147 4.92-1.064 5.925-1.418 1.177-1.524 1.023-.929-1.346 1.022-4.074-1.003-3.205-3.036 1.302-1.455 3.228-1.557 4.262-.538 5.489.69.832 1.603 1.297 2.028 1.034.425-.263 1.363.233 2.084 1.101 1.193 1.438 1.417 1.434 2.495-.04 1.089-1.489 1.236-1.487 1.82.036.35.911.141 2.253-.464 2.981-1.205 1.453.719 8.422 2.325 8.422.472 0 .599-.419.283-.931-.317-.512-.118-1.213.441-1.559 1.464-.905 1.249-4.808-.388-7.047-1.224-1.675-1.16-2.397.5-5.652 2.308-4.523 2.438-8.42.352-10.506-1.053-1.053-1.349-2.477-.921-4.429.782-3.559.172-3.705-1.367-.328m73.647 7.29c-.719 1.011-2.545 2.145-4.057 2.519-1.512.375-2.75 1.14-2.75 1.702 0 2.248 4.202 9.076 5.313 8.634 8.758-3.491 9.687-4.047 9.687-5.802 0-1.04-.45-1.891-1-1.891s-1-1.035-1-2.3c0-4.387-3.846-6.164-6.193-2.862m-68.203 1.718c.393 2.112.079 3.463-1.018 4.372-1.766 1.466-2.136 5.614-.586 6.572.55.34 1-.032 1-.827 0-.794.672-2.733 1.494-4.309 1.869-3.584 1.872-4.502.024-6.923-1.392-1.822-1.448-1.753-.914 1.115m-84.949.273C46.745 64.835 46 67.258 46 69.215c0 3.081.369 3.632 2.75 4.111 1.513.304 3.987.858 5.5 1.23 4.529 1.115 3.542-2.372-1.24-4.38-2.194-.922-3.994-2.028-4-2.457-.022-1.666 2.95-1.791 5.929-.25C58.153 69.131 60 68.823 60 66.626 60 65.2 53.859 62 51.121 62c-.996 0-2.556.823-3.466 1.829m87.157 5.08c-.984 3.076-1.223 5.091-.605 5.091.571 0 .382.995-.428 2.25-.797 1.237-1.702 3.242-2.009 4.454-.536 2.113-.46 2.139 1.836.635 1.495-.98 2.394-2.532 2.394-4.133 0-1.41.531-4.032 1.179-5.825.791-2.188.864-3.97.22-5.412-.857-1.922-1.132-1.61-2.587 2.94M76 68.413c0 .377.707 2.053 1.571 3.724 1.966 3.803 8.559 6.849 16.254 7.511 5.276.454 5.539.378 3.734-1.08C96.393 77.626 93.68 77 90.766 77c-4.392 0-5.321-.439-9.809-4.637-2.726-2.55-4.957-4.328-4.957-3.95M198.5 69c.34.55 1.041 1 1.559 1s.941-.45.941-1-.702-1-1.559-1-1.281.45-.941 1m-25.259 3.996c-3.696 3.623-4.543 3.991-8.912 3.868-2.656-.075-3.704-.306-2.329-.513 4.774-.719 10-2.436 10-3.286 0-.47-1.687-.463-3.75.016-2.062.479-5.265.882-7.117.895-2.869.02-3.289.319-2.843 2.024.34 1.3.03 2-.884 2-.773 0-1.406.45-1.406 1s2.137.996 4.75.99c6.383-.013 14.919-3.989 16.287-7.587.56-1.474.855-2.845.654-3.045-.201-.201-2.203 1.436-4.45 3.638M83 72.972c0 2.265 12.219 4.101 13.5 2.028.371-.6-.908-1-3.198-1-2.098 0-5.275-.419-7.059-.93-1.783-.512-3.243-.556-3.243-.098m15.549 1.948c-.574.93 3.988 5.08 5.586 5.08.476 0 .865.45.865 1s-.661 1-1.469 1c-.807 0-1.246.58-.973 1.289.647 1.687-10.961.708-12.743-1.074-2.405-2.405-3.108-1.156-.758 1.346 2.14 2.277 3.092 2.535 8.623 2.335 3.42-.124 6.803.237 7.519.803 1.497 1.183 4.801 1.332 4.801.216 0-.413-.304-1.543-.675-2.51-.626-1.632-.729-1.62-1.43.168-.607 1.551-.768 1.34-.825-1.082-.046-1.98.614-3.437 1.93-4.259 1.602-1 2.003-.999 2.015.01.011.86.311.79.95-.219 1.737-2.748-1.687-5.023-7.561-5.023-2.907 0-5.542.414-5.855.92m45.276.336c-1.541 1.048-1.511 1.282.379 2.921 2.012 1.745 3.796 1.634 3.796-.236 0-.518-.975-.941-2.167-.941-3.055 0-1.517-1.183 2.083-1.602 3.648-.425 4.892 1.099 2.112 2.587-1.115.597-2.028 1.771-2.028 2.609 0 .838-.38 1.289-.844 1.003-.464-.287-1.301.967-1.859 2.788-.972 3.167-.908 3.297 1.49 3.034 3.054-.335 4.317-2.157 3.567-5.146-.439-1.749-.003-2.456 1.981-3.21 1.399-.532 3.037-1.889 3.639-3.015 1.048-1.957.839-2.045-4.689-1.989-3.182.032-6.539.571-7.46 1.197m-41.392.852c-.309.5.48 1.298 1.753 1.775 1.438.537 2.559.48 2.962-.152.356-.56 1.658-.753 2.894-.43 1.507.394 1.915.256 1.24-.419-1.335-1.335-8.134-1.93-8.849-.774m17.344 1.602c.283 1.535 1.124 3.15 1.869 3.59.745.44 1.354 1.452 1.354 2.25 0 .797.654 1.45 1.453 1.45 1.237 0 1.212-.485-.168-3.25-.892-1.787-1.916-3.898-2.275-4.69-1.219-2.691-2.766-2.24-2.233.65M141.158 80c0 1.375.227 1.938.504 1.25.278-.687.278-1.812 0-2.5-.277-.687-.504-.125-.504 1.25m23.587 1.986c-1.805 1.42-4.063 2.014-7.653 2.014-2.8 0-5.092.45-5.092 1s1.18 1 2.622 1c2.218 0 2.431.232 1.378 1.5-.718.865-.815 1.5-.229 1.5.558 0 1.274-.675 1.591-1.5.316-.825 1.689-1.5 3.051-1.5 2.545 0 8.558-4.358 7.49-5.429-.329-.329-1.75.307-3.158 1.415M92 82.031c0 .568 1.575.926 3.5.796s3.5-.594 3.5-1.031c0-.438-1.575-.796-3.5-.796s-3.5.464-3.5 1.031M155.5 82c.34.55 1.915 1 3.5 1s3.16-.45 3.5-1c.374-.605-1.009-1-3.5-1s-3.874.395-3.5 1m-8.936 2.707c-.542 1.425-.428 1.54.56.56.684-.679.991-1.486.683-1.793-.308-.308-.867.247-1.243 1.233m-102.063 3.92c-1.078 2.003-1.82 5.026-1.657 6.75.347 3.661 3.626 10.939 5.706 12.665 1.234 1.024 1.468.403 1.568-4.17C50.343 93.695 49.208 85 47.655 85c-.66 0-2.079 1.632-3.154 3.627M123 86.566c0 .311.442 1.391.982 2.4.725 1.355.603 1.979-.47 2.391-1.111.426-1.329 1.796-.933 5.85.728 7.434.948 7.793 4.765 7.793 3.015 0 3.478-.359 4.031-3.125 1.093-5.464.724-9.9-.875-10.513-.825-.317-1.493-1.315-1.485-2.219.012-1.282.202-1.35.861-.309.675 1.064.975.997 1.485-.332.962-2.506.968-2.502-3.861-2.502-2.475 0-4.5.255-4.5.566m82.392 4.184c-.915 5.208-1.189 17.246-.392 17.23 2.361-.049 6.938-8.484 6.978-12.862.023-2.502-3.566-9.118-4.946-9.118-.443 0-1.181 2.138-1.64 4.75m-103.313-1.031c-2.227.88-7.079 6.198-7.079 7.758 0 2.923 4.226 8.403 7.794 10.108 5.007 2.393 13.152 2.99 15.612 1.144 1.751-1.314 1.468-1.485-3.5-2.114-9.67-1.225-11.701-1.776-13.819-3.749-4.114-3.833-1.478-11.84 2.981-9.056 2.401 1.5 8.932 1.561 8.932.083 0-.639.739-.828 1.75-.446 1.547.584 1.576.495.25-.769-1.988-1.894-7-3.059-7-1.626 0 .6-.707.384-1.571-.481-1.664-1.663-2.087-1.746-4.35-.852m41.244.977c-1.198.233-2.773 1.158-3.5 2.056-.976 1.203-.993 1.433-.065.876.698-.419 1.896-.117 2.693.68 1.545 1.546 6.08 1.192 8.407-.654 1.911-1.517 4.316 1.996 3.936 5.747-.502 4.949-3.918 6.501-15.794 7.178-12.11.69-18.389 2.372-22.261 5.963-3.126 2.898-3.412 5.257-1.163 9.605 1.437 2.78 1.888 2.989 5.134 2.38 3.045-.572 3.467-.429 2.924.984-.349.909-.634 1.827-.634 2.039 0 .213-.656.135-1.458-.172-.964-.37-1.67.284-2.083 1.929-.955 3.805-.155 7.135 1.804 7.509 1.539.293 1.618.016.619-2.176-1.246-2.735-.509-6.146 1.111-5.144.554.342 1.007 1.752 1.007 3.133 0 2.023.431 2.448 2.222 2.191 1.734-.25 2.407-1.259 3.063-4.59.462-2.349 1.249-4.018 1.748-3.709 1.677 1.036 6.673-2.397 7.939-5.454.69-1.666.97-4.162.622-5.548-.535-2.133-1.204-2.517-4.363-2.504-2.734.012-3.332.268-2.236.961 1.81 1.144 2.329 5.928.838 7.725-2.159 2.602-3.833 1.448-3.833-2.642 0-4.493-1.036-5.518-4.66-4.608-2.277.571-2.479.996-1.912 4.016.377 2.011.199 3.646-.441 4.041-1.828 1.13-3.987-1.59-3.987-5.02 0-2.892.517-3.511 4.489-5.378 3.65-1.715 6.548-2.132 15.511-2.227 10.415-.11 11.237-.272 14.918-2.939 10.472-7.585 3.086-18.911-10.595-16.248M119 92c-.793.49-1.11 1.223-.704 1.629.405.406 1.262.213 1.904-.429 1.511-1.511.668-2.354-1.2-1.2m14.229.187c.498 1.495 2.771 2.318 2.771 1.003 0-.537-.713-1.249-1.584-1.584-.973-.373-1.431-.15-1.187.581M146 92c0 .55.45 1 1 1s1-.45 1-1-.45-1-1-1-1 .45-1 1m80.252 2.5c.011 2.2.216 2.982.455 1.738.239-1.244.23-3.044-.02-4s-.446.062-.435 2.262M110.5 98c.34.55 1.293 1 2.118 1s1.222-.45.882-1c-.34-.55-1.293-1-2.118-1s-1.222.45-.882 1m31.5 0c-.901.582-1.025.975-.309.985.655.008 1.469-.435 1.809-.985.767-1.242.421-1.242-1.5 0m-7.187.683c.721.289 1.584.253 1.916-.079.332-.332-.258-.568-1.312-.525-1.165.048-1.402.285-.604.604M48.06 117.395c-3.579 1.293-4.89 2.974-3.156 4.045.555.343.773 1.239.484 1.991-.288.752-.063 1.652.5 2 .564.348.744 1.365.401 2.259-.525 1.366-.078 1.534 2.793 1.053 1.88-.315 4.318-.842 5.418-1.171 1.1-.328.087.325-2.25 1.453-2.337 1.128-4.25 2.709-4.25 3.513 0 1.932.789 1.855 6.867-.671 4.707-1.957 6.982-4.867 3.804-4.867-.736 0-1.294-1.005-1.25-2.25.057-1.631-.569-2.342-2.275-2.583-2.344-.332-2.345-.339-.292-1.778 2.512-1.759 1.766-4.419-1.211-4.313-1.179.042-3.691.635-5.583 1.319m150.46-.428c-.329.532.32 1.541 1.441 2.241 2.672 1.669 2.588 2.791-.211 2.796-1.705.003-2.674 1.034-4 4.26-2.142 5.212-2.199 6.736-.25 6.736.825 0 1.5-.414 1.5-.92 0-.505 1.805-.21 4.011.656 2.206.867 4.286 1.3 4.623.963 1.29-1.289-.628-3.539-3.566-4.184-2.055-.452-3.068-1.276-3.068-2.497 0-1.688.324-1.725 4.409-.495 2.424.729 4.674 1.06 5 .735 1.233-1.234.514-3.045-1.409-3.548-2.987-.781-2.414-2.615.75-2.398 4.873.333 3.239-2.555-2.25-3.977-6.065-1.572-6.23-1.581-6.98-.368m-65.784 12.631c-.329.329-.35 1.245-.046 2.037.676 1.762-2.406 5.364-4.595 5.369-4.595.011-11.835 7.656-9.48 10.011.615.615 1.02.18 1.124-1.205.221-2.931 4.354-6.887 7.563-7.239 4.454-.489 7.698-3.267 7.698-6.594 0-2.796-.901-3.743-2.264-2.379m-78.486 3.661c-4.709 2.366-5.871 5.284-1.793 4.505 2.166-.415 2.334-.242 1.423 1.461-.569 1.062-.772 2.614-.452 3.449.499 1.299 1.103 1.21 4.203-.619 1.992-1.175 3.809-1.949 4.038-1.72.229.23-1.178 1.358-3.126 2.507-1.949 1.15-3.543 2.529-3.543 3.065 0 2.066 2.134 2.134 4.911.156 3.571-2.543 4.034-2.567 3.409-.179-.334 1.276-1.11 1.722-2.406 1.383-1.571-.41-1.914.037-1.914 2.494 0 5.345 5.435 7.148 7.487 2.483 1.053-2.393 2.965-2.94 4.063-1.163.368.595-.564 2.368-2.071 3.941-1.814 1.893-2.515 3.441-2.077 4.583.574 1.496 1.111 1.29 4.044-1.552 4.379-4.245 6.645-3.172 3.104 1.47-1.402 1.839-2.55 3.824-2.55 4.41 0 1.428 2.31 1.357 3.783-.116 1.691-1.691 2.761-.177 1.202 1.701-1.046 1.26-1.054 1.803-.039 2.774.992.95 1.506.802 2.408-.695.63-1.046 1.933-2.609 2.896-3.472 2.579-2.313 2.242-6.524-.646-8.069-1.317-.705-3.356-2.581-4.529-4.169-1.174-1.588-2.698-2.887-3.386-2.887-.688 0-1.76-1.35-2.383-3-.81-2.145-1.798-3.004-3.469-3.015-1.455-.01-1.885-.303-1.14-.777 1.71-1.087-.097-3.691-1.835-2.644-1.129.68-1.14.545-.063-.783 1.614-1.992.072-3.192-2.893-2.251-1.985.63-2.007.553-.487-1.766 2.769-4.226.398-4.804-6.169-1.505m136.417 3.408c-1.401 1.401-.502 2.383 4.502 4.918l5.168 2.62 1.809-2.353c2.378-3.091 2.325-4.852-.146-4.852-1.123 0-2 .667-2 1.52 0 1.277-.636 1.196-3.96-.5-4.452-2.271-4.455-2.272-5.373-1.353m-59.817 4.219c.742.471 1.709 2.376 2.148 4.235l.797 3.379.103-3.05c.102-3.056-1.381-5.463-3.348-5.435-.578.009-.443.401.3.871m-6.183.781c-.367.366-.667 2.166-.667 4 0 4.361 3.479 4.833 4.295.583.695-3.622-1.64-6.572-3.628-4.583m62.718.772c-.584 1.523.398 3.398 4.431 8.455 2.145 2.689 4.612 2.03 3.657-.978-.465-1.466-.122-1.916 1.46-1.916 3.238 0 2.452-2.945-1.183-4.431-6.377-2.608-7.728-2.791-8.365-1.13m-5.198 5.862c-1.203 1.28-2.187 2.77-2.187 3.311 0 .54 1.806 2.745 4.012 4.9l4.013 3.918 2.628-2.628c1.737-1.738 2.404-3.212 1.966-4.351-.613-1.598-.792-1.604-2.469-.087-2.455 2.222-3.433 2.062-1.946-.319 1.578-2.527.265-3.819-2.272-2.235-1.82 1.137-1.878 1.076-.73-.762 2.018-3.231-.339-4.596-3.015-1.747M62 150c0 .55.477 1 1.059 1s.781-.45.441-1-.816-1-1.059-1-.441.45-.441 1m115 4.3c0 .715.489 1.789 1.087 2.387 1.635 1.635-.823 2.777-2.673 1.241-.897-.744-1.862-.879-2.405-.336-1.117 1.119 5.556 9.408 7.574 9.408 1.722 0 1.856-2.161.234-3.783-.651-.651-.869-1.499-.484-1.884.385-.385 1.233-.167 1.884.484 1.473 1.473 3.783 1.544 3.783.116 0-.587-1.463-2.829-3.25-4.982-3.262-3.93-5.75-5.076-5.75-2.651m-52 1.7c0 .55.45 1 1 1s1-.45 1-1-.45-1-1-1-1 .45-1 1m-47 4c0 .55.477 1 1.059 1s.781-.45.441-1-.816-1-1.059-1-.441.45-.441 1m6 2.532c0 1.393-.648 4.083-1.44 5.978-1.799 4.307-.307 5.575 2.743 2.331 1.211-1.288 3.325-3.086 4.699-3.996 1.967-1.303 2.241-1.92 1.29-2.907-.967-1.004-1.514-.999-2.75.027-1.323 1.098-1.542.907-1.542-1.343 0-1.664-.548-2.622-1.5-2.622-.938 0-1.5.948-1.5 2.532m77.655 2.297c-2.039 2.253-2.067 3.473-.166 7.15 2.821 5.456 9.511 4.742 9.511-1.014 0-3.37-1.913-4.014-2.723-.917-.705 2.695-3.681 2.108-4.097-.808-.235-1.647.185-2.24 1.584-2.24 2.605 0 3.438-1.052 2.105-2.658-1.561-1.881-4.262-1.67-6.214.487M156 168.417c0 2.295 3.842 10.583 4.905 10.583 2.162 0 2.041-2.173-.386-6.963-2.474-4.882-4.519-6.52-4.519-3.62m-58.961 1.772c-2.257 2.423-2.721 7.729-.839 9.611 4.549 4.549 12.004-3.788 8.36-9.349-1.99-3.036-4.844-3.136-7.521-.262m51.548-.33c-.561.908 2.121 10.016 3.359 11.404.998 1.119 7.21-1.291 6.771-2.627-.205-.625-1.389-1.285-2.63-1.467-1.453-.213-2.755-1.523-3.657-3.681-1.526-3.653-2.98-5.026-3.843-3.629m-40.281.993c-.905.597-3.306 8.652-3.306 11.091 0 1.884 2.846 1.117 3.5-.943.349-1.1 1.504-2 2.567-2 1.063 0 1.933-.675 1.933-1.5s-.675-1.5-1.5-1.5-1.5-.373-1.5-.829c0-.457.967-.794 2.149-.75 1.182.043 2.327-.432 2.545-1.057.465-1.332-4.95-3.461-6.388-2.512m32.444.837c-.963.252-1.757.987-1.765 1.634-.01.754-.33.681-.889-.201-1.299-2.051-3.251-.309-3.055 2.727.298 4.615-.011 6.288-1.041 5.651-.55-.34-1-2.14-1-4 0-3.739-1.402-5.241-3.368-3.61-.897.745-1.595.747-2.334.008-.58-.58-2.318-.907-3.861-.726-2.63.307-2.833.67-3.208 5.716-.273 3.684.008 5.64.888 6.184 1.735 1.073 2.883.224 2.883-2.131 0-1.068.338-1.888.75-1.823 2.181.345 3.405-.342 4.219-2.368.844-2.101.909-2.051.983.75.097 3.704.932 5.038 3.693 5.899 3.301 1.03 5.612-1.903 5.168-6.56-.486-5.095.756-4.938 1.577.199.725 4.535 2.563 5.76 6.174 4.115 2.683-1.222 2.941-2.794 1.383-8.403-1.059-3.814-2.298-4.341-7.197-3.061m-42.094 2.517c-.692 2.647-.257 3.239 1.801 2.449 1.917-.736 2.051-4.655.16-4.655-.761 0-1.643.993-1.961 2.206M124 177c0 .55.45 1 1 1s1-.45 1-1-.45-1-1-1-1 .45-1 1m55.75 24.365c-2.467 1.911-2.302 5.635.25 5.635 1.85 0 2 .667 2 8.918 0 10.78.421 12.082 3.907 12.082 5.251 0 6.904-4.767 2.625-7.571-2.264-1.483-2.452-2.183-2.278-8.482.168-6.061.428-6.9 2.218-7.157 1.265-.181 2.028-1.043 2.028-2.29 0-1.667-.748-2.041-4.5-2.245-2.618-.143-5.232.322-6.25 1.11M31.5 212.435c-2.645 2.139-2.852 2.669-1.75 4.482.688 1.131 1.25 4.087 1.25 6.569 0 4.148.203 4.514 2.5 4.514 2.431 0 2.5-.195 2.5-7.07 0-6.759.099-7.055 2.25-6.75 2.044.291 2.277.937 2.546 7.07.281 6.42.416 6.75 2.75 6.75 2.372 0 2.454-.235 2.454-7 0-5.667-.381-7.381-2-9-2.848-2.848-8.69-2.645-12.5.435m18.091-.262c-1.771 2.528-2.158 7.827-.572 7.827.589 0 .753 1.06.388 2.513-.923 3.678 1.115 5.487 6.18 5.487 5.556 0 6.602-1.814 6.209-10.769L61.5 210.5l-5.159-.299c-4.418-.256-5.387.027-6.75 1.972m15.98-.602c-.864.865-1.571 2.183-1.571 2.929s.707 2.064 1.571 2.929c1.429 1.428 1.429 1.714 0 3.142-3.02 3.021-1.282 7.429 2.929 7.429 1.155 0 2.592-.492 3.193-1.093.79-.79 1.657-.79 3.134 0 1.123.601 3.196 1.093 4.607 1.093C82 228 82 228 82 218.93c0-8.833-.059-9.061-2.25-8.75-2.025.288-2.28.954-2.55 6.651-.256 5.399-.513 6.154-1.75 5.128-.797-.662-1.45-2.624-1.45-4.359 0-6.179-4.826-9.631-8.429-6.029m20.887.475c-1.901 2.101-2.221 6.074-1.009 12.531.514 2.742 1.108 3.423 2.988 3.423 1.723 0 2.529-.727 3.034-2.74.64-2.55 2.092-4.208 3.716-4.245.377-.008.827 1.448 1 3.235.24 2.491.838 3.325 2.563 3.57 2.151.305 2.25.009 2.25-6.75 0-5.737-.377-7.447-2-9.07-2.786-2.786-10.003-2.76-12.542.046m18.197-.217c-.91 1.006-1.655 2.806-1.655 4 0 2.887 3.282 2.885 5.2-.004.948-1.427 2.022-1.954 3.122-1.532 2.259.867 2.131 4.394-.204 5.644-4.48 2.397-3.115 8.063 1.942 8.063 2.289 0 3.218-.601 3.965-2.565 1.472-3.871 1.171-10.711-.582-13.212-2.034-2.904-9.297-3.147-11.788-.394m16.545-.629c-1.853 1.853-1.421 5.645.8 7.032 1.491.932 2 2.332 2 5.509V228h14v-9c0-8.164-.176-9-1.893-9-2.398 0-3.149 1.956-2.55 6.637.625 4.884-.258 7.363-2.624 7.363-1.673 0-1.933-.73-1.933-5.429 0-3.601-.529-5.957-1.571-7-1.872-1.871-4.568-2.032-6.229-.371m21.478.603c-2.076 2.294-2.326 4.415-1.301 11.004.775 4.98.989 5.287 3.475 5 2.051-.238 2.719-.927 2.964-3.057.174-1.512.924-2.75 1.667-2.75s1.577-.562 1.855-1.25c.277-.687.54.662.583 3 .071 3.846.317 4.25 2.579 4.25 2.421 0 2.5-.215 2.5-6.777 0-9.105-1.491-11.223-7.902-11.223-3.344 0-5.28.544-6.42 1.803m18.522-.603c-1.655 1.655-1.505 5.302.28 6.783 1.284 1.066 1.19 1.464-.714 3.005-1.922 1.556-2.046 2.102-1.001 4.395.895 1.965 1.93 2.617 4.155 2.617 1.629 0 3.241-.451 3.582-1.003.41-.664 1.29-.643 2.608.062 1.094.585 3.204.924 4.689.753 2.698-.312 2.701-.321 2.701-8.812 0-8.053-.118-8.517-2.25-8.82-2.138-.303-2.25.008-2.25 6.286 0 6.294-.094 6.554-2 5.534-1.474-.789-2-2.094-2-4.964 0-5.772-4.498-9.138-7.8-5.836m31.391.973c-1.797 2.566-2.149 7.827-.524 7.827.606 0 .798.849.445 1.962-1.171 3.69 1.123 6.038 5.901 6.038 5.906 0 6.753-1.348 6.39-10.166l-.303-7.334-5.159-.299c-4.418-.256-5.387.027-6.75 1.972m16.293-.057c-1.875 1.875-2.037 2.812-1.426 8.215.832 7.351 1.002 7.669 4.101 7.669 2.046 0 2.441-.486 2.441-3 0-1.65.413-3 .918-3 .505 0 1.63-.273 2.5-.607 1.262-.484 1.582.122 1.582 3 0 3.181.295 3.607 2.5 3.607 2.429 0 2.5-.2 2.5-7 0-5.667-.381-7.381-2-9-2.827-2.827-10.238-2.762-13.116.116M54 219.393c0 .216.675.652 1.5.969.825.316 1.5.139 1.5-.393 0-.533-.675-.969-1.5-.969s-1.5.177-1.5.393m143 0c0 .216.675.652 1.5.969.825.316 1.5.139 1.5-.393 0-.533-.675-.969-1.5-.969s-1.5.177-1.5.393m-45.75 10.269c-3.042 1.228.315 9.338 3.865 9.338 1.516 0 1.885-.744 1.885-3.8 0-5.127-1.998-7.052-5.75-5.538M29.398 244.405c-.963 2.51.061 7.868 1.7 8.893 1.124.703 2.488.556 4.598-.497 2.493-1.243 3.303-1.275 4.79-.187 1.211.885 2.357 1.005 3.542.371 1.359-.727 1.868-.49 2.273 1.058.519 1.984.54 1.984 4.022-.071 1.926-1.136 3.752-1.659 4.059-1.162.907 1.466 8.963.691 9.395-.904 1.081-3.987 1.509-4.365 2.156-1.906.541 2.057 1.269 2.5 4.112 2.5 2.736 0 3.394-.364 3.161-1.75-.161-.963.176-1.75.75-1.75.574 0 1.044.9 1.044 2 0 2.694 1.848 2.539 2.969-.25l.904-2.25.064 2.191c.07 2.435 1.677 3.968 2.275 2.172.286-.856.963-.84 2.65.063 1.641.878 2.627.913 3.575.126.72-.598 2.042-.806 2.936-.462 1.176.451 1.627.057 1.627-1.424 0-1.126.45-2.326 1-2.666.567-.351 1 .49 1 1.941 0 2.784.925 3.234 2.8 1.359.803-.803 1.2-.838 1.2-.107 0 .601.638 1.338 1.417 1.637 1.09.418 1.416-.475 1.416-3.886 0-4.746-1.111-6.288-3.25-4.513-.731.607-2.026.836-2.878.509-.852-.327-2.513-.078-3.691.552-1.602.858-2.487.86-3.514.008-1.026-.852-1.909-.852-3.5 0-1.387.743-2.541.802-3.314.171-.652-.532-3.173-.795-5.601-.584-2.428.212-4.923-.038-5.545-.554-.717-.595-2.578-.439-5.085.425-2.808.967-4.326 1.056-5.235.305-.891-.736-1.973-.741-3.564-.016-1.397.637-2.908.692-3.891.141-.952-.533-2.576-.53-3.988.007-1.471.559-3.051.531-4.132-.074-1.207-.675-2.212-.595-3.242.259-1.223 1.015-1.764.849-3.004-.921-1.737-2.479-7.143-2.989-8.001-.754m86.116.549c-.529 1.669-.974 1.794-3.037.853-1.828-.833-2.791-.792-3.947.168-2.14 1.776-1.91 5.751.404 6.99 2.502 1.339 2.635 1.323 4.495-.536.864-.865 1.571-1.09 1.571-.5 0 .589.616 1.071 1.369 1.071 1.197 0 2.584-4.632 2.62-8.75.018-2.008-2.795-1.437-3.475.704m9.684 3.296l.302 5.25 3.383-.156c1.86-.085 3.766-.76 4.234-1.5.633-.998.856-1.022.868-.094.008.688.69 1.25 1.515 1.25 1.133 0 1.5-1.222 1.5-5 0-5.004-.65-5.95-2.687-3.913-.783.783-1.275.783-1.759 0-.37-.598-2.244-1.087-4.165-1.087h-3.494l.303 5.25m55.002-4.05c-1.793 1.793-1.448 6.266.629 8.145 2.303 2.084 3.052 2.073 5.433-.082 1.824-1.651 1.985-1.646 3.255.091.989 1.353 1.939 1.624 3.66 1.045 1.277-.43 3.11-.668 4.073-.528 1.291.188 1.781-.484 1.868-2.558l.119-2.813.641 3c.353 1.65 1.083 3 1.622 3 .539 0 1.269-1.35 1.622-3 .417-1.952.683-2.284.76-.95.168 2.913 1.833 4.227 4.669 3.685 1.533-.293 2.449-1.151 2.449-2.293 0-1.003.45-2.102 1-2.442.55-.34 1 .293 1 1.406s.87 2.489 1.934 3.059c2.502 1.339 2.635 1.323 4.495-.536.864-.865 1.571-1.09 1.571-.5 0 .589.7 1.071 1.555 1.071 1.228 0 1.491-.982 1.25-4.672-.324-4.964-2.805-7.519-2.805-2.888 0 2.476-.113 2.532-2.26 1.126-1.242-.815-2.811-1.14-3.486-.723-1.587.981-8.254.211-8.254-.952 0-.49-.675-.891-1.5-.891s-1.5.405-1.5.901-1.605.856-3.567.8c-2.122-.06-3.939.486-4.485 1.349-.515.814-.924.949-.933.307-.029-2.173-3.288-2.449-5.42-.459-1.152 1.074-3.333 2.261-4.845 2.636-2.37.589-2.75.381-2.75-1.505 0-1.911.38-2.104 3-1.529 1.65.362 3 .263 3-.221 0-1.568-2.348-3.279-4.5-3.279-1.155 0-2.64.54-3.3 1.2m-40.95 1.462c-1.794.724-1.591 6.993.25 7.7 1.824.7 4.5-.216 4.5-1.54 0-.531.733-.232 1.629.664.953.953 2.302 1.348 3.25.952 1.741-.726 2.163-.73 6.371-.055 1.512.242 2.75.04 2.75-.45 0-.489 1.112-.384 2.47.235 1.869.852 2.828.83 3.936-.09 1.112-.923 1.98-.942 3.594-.078 2.665 1.426 5-.208 5-3.5 0-3.356-2.634-5.21-5.16-3.632-1.56.974-2.314.983-3.448.042-1.05-.871-2.083-.916-3.736-.163-1.392.634-2.909.691-3.884.145-1.79-1.001-4.772-.197-4.772 1.286 0 .531-.707.258-1.571-.607-1.924-1.923-2.888-1.969-4.636-.221-1.133 1.133-1.552 1.133-2.611 0-1.323-1.416-1.883-1.514-3.932-.688M33 248c0 1.1.45 2 1 2s1-.9 1-2-.45-2-1-2-1 .9-1 2m95-.083c0 1.228.646 2.083 1.573 2.083.932 0 1.442-.68 1.25-1.667-.486-2.509-2.823-2.853-2.823-.416M49.5 249c-.34.55-.141 1 .441 1S51 249.55 51 249s-.198-1-.441-1-.719.45-1.059 1m60.5.559c0 .857.457 1.276 1.016.931.559-.346.758-1.047.441-1.559-.857-1.387-1.457-1.129-1.457.628m81-.059c0 .825.45 1.5 1 1.5s1-.675 1-1.5-.45-1.5-1-1.5-1 .675-1 1.5m16.079.083c.048 1.165.285 1.402.604.605.289-.722.253-1.585-.079-1.917-.332-.332-.568.258-.525 1.312m8.921-.142c0 .857.45 1.559 1 1.559s1-.423 1-.941-.45-1.219-1-1.559c-.55-.34-1 .084-1 .941" fill="#1976D2" fill-rule="evenodd"/><path fill-opacity=".458" d="M107 6.936C57.841 17.319 24.88 65.908 33.492 115.295c6.245 35.811 31.855 64.535 67.211 75.386 8.038 2.467 10.263 2.705 25.797 2.76 18.975.066 25.757-1.265 40.017-7.853 35.231-16.278 57.794-53.963 55.112-92.047-3.05-43.298-34.618-78.99-76.989-87.046-10.469-1.991-27.046-1.796-37.64.441m2 1.506c-29.375 6.211-53.126 24.805-65.95 51.63-6.664 13.938-8.376 21.997-8.376 39.428 0 17.424 1.713 25.491 8.364 39.404 12.65 26.461 36.995 45.702 65.17 51.508 9.929 2.046 27.655 2.046 37.584 0 27.49-5.665 51.84-24.521 64.451-49.912 17.749-35.733 10.256-79.336-18.406-107.109-11.991-11.62-25.108-19.114-41.337-23.618-9.215-2.557-32.213-3.295-41.5-1.331m13.5 4.781c-4.597 1.549-5.791 2.263-5.535 3.313.129.53.629.855 1.11.722.481-.132.39.823-.203 2.124-.781 1.713-.764 2.951.06 4.492 1.159 2.164 3.517 2.827 4.485 1.26.294-.476 1.641-.654 2.993-.396 2.227.426 2.486.109 2.773-3.384.304-3.692-1.041-9.47-2.152-9.248-.292.059-1.881.561-3.531 1.117m9.7 1.977c-.66.66-1.2 1.785-1.2 2.5 0 1.797 2.656 1.639 3.362-.2C135.58 14.326 137 16.21 137 21c0 5.171 1.313 6.694 2.37 2.75 1.612-6.016.13-9.75-3.87-9.75-1.155 0-2.64.54-3.3 1.2m-24.916 1.821c-.42 1.606-.817 1.782-1.93.858-2.714-2.253-2.779.294-.125 4.932 2.315 4.046 3.066 4.645 5.477 4.371 1.537-.175 3.123-.638 3.524-1.03.844-.823-.949-8.052-2.456-9.902-1.547-1.899-3.897-1.495-4.49.771m14.216-.297c1.1.27 2.573.956 3.273 1.525.959.779 1.118.629.643-.608-.383-.998-1.666-1.596-3.273-1.525-2.085.092-2.221.22-.643.608m22.759.526c-.542.688-1.269 3.109-1.615 5.38l-.629 4.13 4.214 1.07c3.176.806 4.403.774 4.978-.13.737-1.16 1.192-4.299.876-6.055-.084-.471.362-1.476.991-2.234.907-1.093.591-1.588-1.53-2.394-3.582-1.362-6.09-1.282-7.285.233m-51.036 3.307C92 21.413 91 22.988 91 24.057c0 2.551 2.039 2.508 2.71-.057.288-1.1 1.323-2 2.3-2 1.988 0 3.429 2.611 1.946 3.527-1.479.914-1.129 4.193.515 4.824.809.31 2.133-.098 2.943-.908 1.178-1.177 1.254-2.119.384-4.707-2.031-6.04-4.324-7.157-8.575-4.179m14.959 1.943c.626 1.375 1.517 2.5 1.979 2.5 1.514 0 .877-3.771-.743-4.393-2.392-.918-2.465-.805-1.236 1.893m47.798-.976c-1.726 2.08-.342 3.183 2.088 1.665 2.793-1.744 3.418.404 1.472 5.06-1.077 2.579-1.2 3.843-.419 4.326 1.338.827 2.511-.859 4.031-5.793.894-2.902.866-4.055-.126-5.25-1.632-1.967-5.417-1.971-7.046-.008m-10.376 1.066c-.744 1.939.053 3.41 1.848 3.41 1.516 0 2.84-2.718 1.992-4.09-.899-1.455-3.176-1.052-3.84.68M82.75 25.572c-3.577 1.941-3.523 5.115.149 8.715 2.543 2.495 3.119 2.662 5.472 1.59 3.196-1.456 3.357-3.963.547-8.509-2.358-3.815-2.415-3.832-6.168-1.796m84.45.628c-.66.66-1.2 1.92-1.2 2.8 0 .88-.51 2.11-1.133 2.733-.623.623-.858 1.849-.522 2.724.672 1.751 4.526 3.519 6.247 2.865 1.146-.435 5.865-8.26 5.259-8.719-4.951-3.751-6.792-4.262-8.651-2.403M84.5 31c-.34.55.309 1 1.441 1C87.073 32 88 31.55 88 31s-.648-1-1.441-1-1.719.45-2.059 1m84.5 1c0 1.867.267 2.133 1.2 1.2.933-.933.933-1.467 0-2.4-.933-.933-1.2-.667-1.2 1.2m-95.96.452c-.671.808-.908 2.388-.535 3.563.61 1.924.486 1.997-1.401.818-1.751-1.094-2.332-1.034-3.752.386-1.4 1.4-1.462 1.943-.375 3.253.74.893 2.083 1.326 3.103 1.003 1.181-.375 2.174.132 2.894 1.477 1.15 2.149 3.494 2.718 4.499 1.092.325-.526-.105-2.62-.954-4.654-1.987-4.753-1.311-5.381 1.581-1.469 2.467 3.337 3.9 3.93 3.9 1.614C82 37.963 76.305 31 75.019 31c-.426 0-1.316.653-1.979 1.452m103.963 1.731c-.549 1.274-1.521 3.043-2.16 3.931-1.562 2.171-.381 4.886 2.126 4.886 1.983 0 2.419-.847 2.109-4.097-.083-.878.48-2.121 1.252-2.762 1.09-.904 1.694-.817 2.694.388 1.088 1.311.797 2.06-1.869 4.811-2.457 2.535-2.891 3.524-1.956 4.459.66.66 1.679 1.201 2.264 1.201.584 0 1.507 1.013 2.05 2.25 1.438 3.277 4.987 3.001 4.987-.389 0-1.452.817-3.544 1.815-4.651 2.579-2.858.181-4.025-2.703-1.315-2.119 1.99-4.612 2.808-4.612 1.513 0-.326.89-1.724 1.978-3.107 2.702-3.436.738-7.07-4.727-8.746-1.76-.539-2.467-.185-3.248 1.628m-67.503 2.69c-11.236 3.239-19.374 8.064-28.036 16.62C68.147 66.646 61.748 81.6 61.734 99.597c-.009 11.734 1.433 17.83 6.844 28.942 5.324 10.934 12.045 18.727 21.664 25.122 20.072 13.344 44.018 14.875 65.758 4.205 6.652-3.265 10.265-5.932 16.617-12.269 12.393-12.363 18.179-25.142 19.061-42.097.864-16.622-3.104-29.708-13.144-43.346-7.992-10.857-21.941-20.011-35.994-23.622-8.128-2.089-25.226-1.913-33.04.341M61.25 44.22c-2.823 1.362-3.027 4.78-.285 4.78C62.835 49 65 46.352 65 44.066c0-1.297-.811-1.263-3.75.154m4.867 5.53c-1.537 1.277-1.844 2.155-1.14 3.25 1.281 1.989 4.395.155 4.843-2.852.387-2.604-.885-2.741-3.703-.398M194 48.945c0 .52-1.238 1.537-2.75 2.26-3.128 1.494-4.258 5.471-1.82 6.406.863.332 1.57 1.203 1.57 1.937s.419 1.593.931 1.91c1.396.862 7.327-2.297 9.3-4.953 1.694-2.281 1.656-2.397-1.785-5.418-3.558-3.124-5.446-3.866-5.446-2.142M55.236 51.273C52.669 54.518 51.943 57.025 53 59c.589 1.1 1.865 2 2.835 2 .971 0 2.23.465 2.798 1.033 1.483 1.483 3.913.259 5.232-2.635 1.508-3.31 1.719-2.9-3.262-6.327-3.341-2.299-4.629-2.73-5.367-1.798m71.782.455c-.457 7.86-.519 8.101-1.814 7.027-.712-.592-1.069-1.664-.793-2.383.276-.719.119-1.544-.348-1.833-1.116-.69-2.234 3.851-1.451 5.893.412 1.074.169 1.424-.751 1.078-2.828-1.066-6.492 9.364-3.861 10.99.55.34 1 2.098 1 3.906 0 1.86.875 4.296 2.014 5.61 1.317 1.519 1.793 3.042 1.376 4.403-.838 2.731-.624 2.582-4.654 3.236-2.735.444-3.977.104-5.623-1.542-2.656-2.656-2.699-4.726-.113-5.403 2.649-.693 2.637-4.824-.022-7.23-1.645-1.489-4.112-1.897-13.25-2.191-12.827-.413-17.643-1.433-20.224-4.285-2.385-2.635-3.45-2.54-2.758.246.883 3.559 3.958 7.381 6.978 8.674 1.527.654 3.676 2.61 4.776 4.347 1.251 1.975 3.31 3.526 5.5 4.141 4.871 1.37 6.39 3.575 3.998 5.804-3.155 2.94-3.371 5.604-.844 10.368 1.288 2.429 2.906 4.416 3.594 4.416.689 0 1.252.34 1.252.757 0 1.08 7.396 3.243 11.091 3.243 2.597 0 2.995.295 2.364 1.75-2.071 4.773-1.668 7.938 1.466 11.507 2.666 3.037 2.967 3.908 2.118 6.141-1.109 2.917.038 7.115 2.146 7.851 1.004.35.884.945-.51 2.516-2.013 2.27-1.965 7.321.076 7.991.772.254 1.029-.165.673-1.094-.659-1.717 1.16-5.662 2.611-5.662 1.28 0 1.248 8.707-.035 9.5-1.414.874-1.217 1.659 1.117 4.464l2.051 2.465 1.805-2.393c1.446-1.917 1.698-3.578 1.265-8.348-.437-4.823-.274-5.868.861-5.497.771.253 1.877 1.899 2.46 3.659.582 1.76 1.369 2.888 1.75 2.508 1.276-1.276.707-5.683-.973-7.54-1.562-1.725-1.523-1.99.637-4.289 1.77-1.884 2.179-3.21 1.77-5.74-.424-2.626.052-3.987 2.363-6.751 2.9-3.469 3.389-5.587 2.264-9.788-.377-1.406-1.404-2.276-2.737-2.32-2.049-.068-2.055-.101-.156-.843 1.087-.425 3.562-.618 5.5-.43 8.506.827 13.555-2.179 15.975-9.512 1.64-4.97.277-8.62-3.58-9.588-1.305-.327-2.372-1.067-2.372-1.643 0-.577.847-.78 1.882-.452 1.187.377 2.098.033 2.468-.932.323-.842 1.626-1.53 2.896-1.53 3.006 0 6.649-2.594 7.765-5.529.487-1.28 2.391-3.042 4.231-3.916 3.473-1.648 6.758-6.078 6.758-9.114 0-1.618-.136-1.628-1.787-.134-3.662 3.315-9.205 4.734-19.982 5.116-5.902.209-11.261.425-11.91.479-4.007.334-5.987 7.849-2.321 8.808 2.349.615 2.321.491.848 3.724-1.369 3.005-3.873 3.972-8.185 3.161-2.644-.498-3.197-1.086-3.372-3.582-.142-2.04.384-3.304 1.66-3.987 1.147-.613 2.142-2.647 2.575-5.263.388-2.345 1.142-5.091 1.674-6.104 1.186-2.256-.791-7.659-2.802-7.659-.748 0-1.646-1.139-1.995-2.531-.481-1.915-1.093-2.385-2.519-1.932-1.631.518-1.884.06-1.884-3.411 0-3.897-1.776-6.941-1.982-3.398m68.624.359c.629.777 1.384 2.313 1.68 3.413.337 1.257.47.913.357-.923-.098-1.607-.854-3.143-1.679-3.413-1.179-.384-1.255-.187-.358.923m-2.563 2.496c.048 1.165.285 1.402.604.605.289-.722.253-1.585-.079-1.917-.332-.332-.568.258-.525 1.312M58 56.969c0 .532.675.709 1.5.393.825-.317 1.5-.753 1.5-.969 0-.216-.675-.393-1.5-.393s-1.5.436-1.5.969m128.161 5.578c-.639 1.401-1.161 2.751-1.161 3 0 .953 2.7.393 4.521-.939 1.617-1.182 1.703-1.633.569-3-1.831-2.206-2.578-2.028-3.929.939m14.839.328c0 1.342-.723 1.875-2.542 1.875-1.398 0-2.792.251-3.099.558-.856.855 1.683 7.771 3.044 8.293 1.537.59 10.597-3.384 10.597-4.648 0-.524-.916-.953-2.035-.953-1.64 0-1.851-.345-1.085-1.776 1.249-2.333-.373-5.224-2.93-5.224-1.24 0-1.95.683-1.95 1.875M48.416 64.493c-2.558 2.558-3.267 7.354-1.166 7.887.688.174 2.806.831 4.708 1.46 5.507 1.821 5.961-.335.64-3.039-4.208-2.138-4.516-2.531-3.297-4.197 1.261-1.726 1.536-1.74 4.472-.221 3.754 1.941 5.23 2.045 5.217.367-.006-.687-1.844-2.02-4.084-2.962-4.034-1.694-4.097-1.687-6.49.705m149.797 4.257c.228 1.112 1.076 1.624 2.323 1.405 2.739-.481 3.15-1.11 1.435-2.194-2.353-1.488-4.148-1.111-3.758.789m-97.4 11.933c.721.289 1.584.253 1.916-.079.332-.332-.258-.568-1.312-.525-1.165.048-1.402.285-.604.604M45.191 88.96c-2.343 3.815-2.283 7.263.227 13.222 2.12 5.031 3.563 5.672 3.665 1.627.046-1.82.199-4.358.339-5.639.141-1.282-.276-4.657-.925-7.5l-1.18-5.17-2.126 3.46M207 88.941c0 1.068-.353 2.159-.784 2.425-.747.462-.836 3.229-.392 12.134l.2 4 2.488-4.352c2.853-4.991 3.144-8.979.962-13.198-1.776-3.434-2.474-3.719-2.474-1.009M101.2 95.2c-3.572 3.572.364 8.486 7.8 9.738 5.66.954 20.181 2.195 16.369 1.399-1.594-.333-2.291-1.446-2.766-4.418-.565-3.536-.846-3.859-2.553-2.946-2.643 1.415-3.364 1.288-2.688-.473.67-1.748-.481-1.981-2.047-.415-1.417 1.417-5.888.727-5.565-.859.143-.701-.794-1.226-2.191-1.226-1.343 0-2.719-.45-3.059-1-.818-1.324-1.838-1.262-3.3.2m46.55.507c-1.628.252-2.75 1.056-2.75 1.969 0 1.173-.835 1.445-3.484 1.136-1.917-.224-3.658.065-3.87.641-.256.696-1.094.628-2.502-.203-2.918-1.723-2.886-1.751-3.327 2.875l-.394 4.125 9.307-.486c10.797-.565 13.57-2.094 13.069-7.205-.312-3.179-1.211-3.602-6.049-2.852M132 111c0 .55.45 1 1 1s1-.45 1-1-.45-1-1-1-1 .45-1 1m-4 1.06c0 .399.69.991 1.533 1.314 1.041.4 1.457 1.704 1.298 4.072-.255 3.786.433 5.127 2.102 4.095 1.739-1.074 1.218-5.095-.909-7.02-1.087-.983-1.782-2.103-1.544-2.488.237-.385-.223-.7-1.024-.7s-1.456.327-1.456.727m-7.565 5.342c-.691 2.754.193 4.946 1.634 4.055 1.228-.759 1.199-5.174-.04-5.939-.534-.33-1.251.518-1.594 1.884m-71.185.26c-4.293 1.52-5.682 3.338-2.55 3.338 1.322 0 1.433.267.5 1.2-1.9 1.9-1.416 2.795 1.55 2.863 2.643.061 2.663.099.5.968-1.237.498-2.25 1.417-2.25 2.044 0 .626.628.898 1.396.603.768-.294 3.255-1.092 5.528-1.773 4.822-1.445 4.86-3.265.078-3.731l-3.344-.326 2.832-2.259c1.656-1.319 2.533-2.742 2.112-3.423-.87-1.408-1.001-1.398-6.352.496m149.75.221c0 .486.902 1.12 2.004 1.408 1.355.354 1.802 1.05 1.382 2.146-.419 1.091-1.279 1.414-2.623.988-1.406-.446-1.868-.239-1.555.698.476 1.43 8.77 4.232 9.719 3.283.313-.313-.217-1.145-1.179-1.848-2.515-1.839-2.151-3.558.752-3.558 3.747 0 3.012-1.53-1.366-2.842-4.618-1.383-7.134-1.48-7.134-.275m-3.498 10.114c-1.788 3.457-1.152 5.787 1.076 3.938 1.075-.892 2.329-.789 5.411.444 2.523 1.01 4.011 1.207 4.011.532 0-.589-1.819-1.786-4.042-2.66-2.523-.991-3.855-2.076-3.544-2.887 1.072-2.795-1.42-2.254-2.912.633M52.75 129.658c-3.473 1.441-5.049 3.342-2.77 3.342 1.922 0 9.02-3.233 9.02-4.109 0-1.264-1.922-1.028-6.25.767m77.25 2.901c0 1.451.433 2.292 1 1.941.55-.34 1-1.491 1-2.559s-.45-1.941-1-1.941-1 1.152-1 2.559m-74.185.512c-2.027 1.051-3.985 2.394-4.35 2.986-1.057 1.71.335 2.354 2.035.943 2.267-1.882 2.906-.55 1.076 2.243-.87 1.329-1.302 2.698-.958 3.042.956.956 10.54-4.22 9.858-5.323-.382-.619-1.271-.607-2.471.035-2.976 1.593-3.359 1.192-1.527-1.604 2.352-3.589.746-4.607-3.663-2.322m66.185-.512c0 .857.457 1.276 1.016.931.559-.346.758-1.047.441-1.559-.857-1.387-1.457-1.129-1.457.628m69 5.212c0 .424 2.056 1.886 4.57 3.25 4.488 2.435 4.594 2.445 6 .538 1.475-2.002 1.918-4.559.79-4.559-.352 0-1.218.787-1.926 1.75-1.224 1.667-1.427 1.667-4.264 0-3.17-1.863-5.17-2.241-5.17-.979m-64.267 2.353c.679.684 1.486.991 1.793.683.308-.308-.247-.867-1.233-1.243-1.425-.542-1.54-.428-.56.56m-66.983 2.571c-3.536 2.429-4.8 4.305-2.9 4.305 1.007 0 9.15-5.79 9.15-6.506 0-1.165-2.768-.19-6.25 2.201m127.751.303c-.617.999 5.345 8.95 6.737 8.984.406.01.631-.993.5-2.229-.176-1.658.351-2.331 2.012-2.569 3.494-.502 2.683-1.634-2.5-3.491-5.531-1.983-5.928-2.024-6.749-.695m-123.77 2.261c-.289.752-.294 2.577-.011 4.054.309 1.618.069 2.687-.603 2.687-.615 0-1.173-.45-1.242-1-.069-.55-.237-1.45-.375-2a52.22 52.22 0 01-.405-1.75c-.086-.412-.611.032-1.168.987-1.305 2.239.473 5.763 2.908 5.763 2.749 0 4.112-2.013 3.486-5.146-.357-1.786-.15-2.854.554-2.854.619 0 1.125.9 1.125 2s.48 2 1.066 2c.587 0 .924-1.238.75-2.75-.244-2.122-.914-2.819-2.938-3.054-1.531-.178-2.841.265-3.147 1.063M191.5 146c.34.55.816 1 1.059 1s.441-.45.441-1-.477-1-1.059-1-.781.45-.441 1m-9.346 3.336l-2.137 2.275 3.966 3.872c3.883 3.792 4.008 3.835 5.992 2.04 1.916-1.735 2.771-4.523 1.385-4.523-.352 0-1.215.787-1.918 1.748-1.686 2.307-3.212.715-1.675-1.747 1.445-2.314-.043-3.578-1.767-1.501-.675.813-1.655 1.213-2.178.89-.541-.335-.249-1.366.678-2.39 2.421-2.675.147-3.318-2.346-.664m-110.885 1.586c.328 1.254-.489 2.872-2.347 4.653-1.568 1.502-2.591 3.151-2.274 3.665.318.514 2.026-.47 3.797-2.186 2.116-2.051 3.79-2.901 4.887-2.48 2.394.918 2.055-.862-.646-3.4-2.859-2.686-4.077-2.775-3.417-.252m106.72 4.565c.679.818.95 2.23.602 3.136-.579 1.509-.801 1.497-2.618-.147-1.092-.989-2.244-1.538-2.56-1.222-.826.826.99 3.859 3.991 6.667 2.742 2.564 4.785 2.216 2.581-.439-2.056-2.478.397-4.352 2.823-2.156 1.02.923 2.135 1.398 2.478 1.055.883-.883-5.501-8.341-7.158-8.363-1.102-.014-1.129.276-.139 1.469M74.652 159.23c-3.527 4.246-3.992 7.293-.652 4.27 2.116-1.915 3.47-.555 2.497 2.509-.866 2.728 1.151 2.528 2.614-.259.649-1.238 1.79-2.61 2.535-3.05 2.074-1.225 1.558-4.006-1.103-5.94-2.366-1.72-2.434-1.692-5.891 2.47m2.987-.536c-1.126 1.126-.685 2.306.861 2.306.825 0 1.5-.423 1.5-.941 0-1.261-1.562-2.164-2.361-1.365m6.966 3.894c-.333.866-.605 2.574-.605 3.794 0 1.22-.532 2.75-1.183 3.401-.651.651-.903 1.464-.56 1.807.683.683 8.696-5.616 8.725-6.859.01-.423-1.112-.485-2.493-.139-1.975.496-2.388.308-1.932-.88.319-.83.146-1.778-.384-2.105-.53-.328-1.236.114-1.568.981m76.776 4.03c-1.517 6.045 5.893 11.475 8.644 6.335.86-1.606.869-2.459.035-3.293-.834-.834-1.277-.547-1.709 1.107-.694 2.652-1.638 2.803-3.83.612-2.104-2.105-1.539-4.879.995-4.88 2.832-.002 2.037-1.938-.95-2.312-2.006-.252-2.632.226-3.185 2.431m-4.721 1.124c-.81 1.31 3.076 10.258 4.454 10.258 1.189 0 .4-2.984-2.09-7.9-.946-1.869-2.01-2.931-2.364-2.358m-60.234 4.781c-1.812 4.336-.53 7.477 3.052 7.477 4.216 0 7.248-6.874 4.322-9.8-2.458-2.458-5.819-1.399-7.374 2.323M149 170.822c0 1.683 3.212 10.177 3.844 10.164 2.419-.05 5.156-1.442 5.156-2.622 0-.986-.722-1.221-2.432-.792-2.162.543-2.57.155-3.659-3.481-1.068-3.564-2.909-5.634-2.909-3.269M99.2 172.2c-1.703 1.703-1.516 5.8.265 5.8 1.817 0 3.88-3.659 3.143-5.578-.666-1.738-1.817-1.813-3.408-.222m8.499-.518c-1.128 1.83-1.892 10.318-.929 10.318.548 0 1.233-.902 1.521-2.004.349-1.337 1.054-1.801 2.116-1.393.882.338 1.593.103 1.593-.527 0-.627-.675-1.398-1.5-1.714-2.366-.908-1.75-2.362 1-2.362 1.375 0 2.5-.45 2.5-1s-.638-1-1.418-1c-.78 0-2.085-.256-2.899-.568-.814-.313-1.707-.2-1.984.25M140 173.557c0 .857.507 3.569 1.126 6.028.98 3.892 1.4 4.388 3.25 3.835 3.803-1.136 5.255-3.18 3.854-5.423-.676-1.083-1.23-2.876-1.23-3.983 0-1.635-.659-2.014-3.5-2.014-2.502 0-3.5.444-3.5 1.557m-18.403.179c-1.02 1.021-.654 11.264.403 11.264.55 0 1-.9 1-2 0-1.321.667-2 1.965-2 2.929 0 4.608-3.71 2.655-5.867-1.554-1.718-4.921-2.498-6.023-1.397m14.208 4.014c-.379 5.897-2 6.151-3.193.5-1.224-5.803-3.06-5.532-2.256.333.792 5.775 1.209 6.417 4.168 6.417 3.105 0 4.277-2.445 3.716-7.75-.603-5.699-2.057-5.4-2.435.5M142.5 175c-.34.55.084 1 .941 1s1.559-.45 1.559-1-.423-1-.941-1-1.219.45-1.559 1m-19.271 2.188c.618 1.854 2.771 2.161 2.771.395 0-.87-.713-1.583-1.583-1.583-.871 0-1.406.534-1.188 1.188m20.314 1.743c-.74 1.197 1.141 2.382 2.473 1.559 1.119-.691.384-2.49-1.016-2.49-.485 0-1.141.419-1.457.931m37.207 22.638c-3.22 1.75-3.606 4.395-.75 5.141 1.809.473 2 1.364 2 9.335 0 8.873 1.127 11.955 4.371 11.955 3.631 0 4.812-5.244 1.629-7.232-1.721-1.075-2-2.332-2-9.009 0-7.092.172-7.759 2-7.759 1.111 0 2-.667 2-1.5 0-.825-.863-1.5-1.918-1.5s-2.518-.208-3.25-.463c-.733-.254-2.57.21-4.082 1.032m-128.592 9.568c-2.267.839-2.649 1.39-3.539 5.113-.476 1.991-.276 2.75.726 2.75.949 0 1.347 1.162 1.269 3.705-.098 3.169.277 3.845 2.596 4.679 1.863.67 3.503.612 5.25-.184 2.269-1.034 2.54-1.74 2.54-6.621v-5.464l-4.25-.383-4.25-.383 4.25-.174c2.879-.119 4.25-.624 4.25-1.566 0-1.605-5.849-2.579-8.842-1.472m38.196-.419c-4.399.808-5.627 3.544-4.7 10.467.719 5.366 1.146 6.315 2.846 6.315 1.458 0 2.089-.776 2.327-2.864.203-1.768 1.037-3.049 2.181-3.348 2.587-.677 3.363-3.345 1.513-5.196-1.274-1.274-1.91-1.33-3.537-.314-2.328 1.454-2.683.047-.454-1.803 1.169-.97 2.111-1.004 4-.143 2.259 1.029 2.47 1.682 2.47 7.647 0 5.13.32 6.521 1.5 6.521 1.198 0 1.5-1.486 1.5-7.378 0-4.71-.452-7.733-1.25-8.362-1.639-1.29-5.703-2.037-8.396-1.542m17.905.069c-2.069.323-5.259 3.62-5.259 5.436 0 1.571 3.229.716 4.848-1.284 1.09-1.345 2.274-1.829 3.411-1.393 2.428.931 2.259 5.65-.259 7.222-4.311 2.692-1.102 8.511 3.53 6.4 2.216-1.009 2.47-1.725 2.47-6.955 0-7.882-2.357-10.424-8.741-9.426m37.862.297c-1.859.394-3.782 1.324-4.275 2.066-1.02 1.539-.072 12.895 1.188 14.233 1.494 1.585 3.966-.25 3.966-2.945 0-1.753.642-2.793 1.931-3.13 2.655-.694 3.462-3.343 1.59-5.216-1.274-1.274-1.91-1.33-3.537-.314-1.645 1.027-1.984.985-1.984-.25 0-1.972 4.625-3.084 6.467-1.555.893.741 1.555 3.514 1.737 7.282.183 3.755.775 6.244 1.546 6.499.925.305 1.25-1.526 1.25-7.048 0-4.781-.449-7.812-1.25-8.439-1.976-1.547-4.973-1.957-8.629-1.183m49.738-.255c-.747.22-1.921 1.11-2.609 1.977-1.459 1.84-1.679 6.194-.313 6.194.516 0 .684 1.559.375 3.464-.493 3.04-.235 3.614 2.103 4.679 1.833.836 3.512.918 5.375.264 2.302-.807 2.792-1.664 3.258-5.696.301-2.611.295-5.155-.013-5.654-.309-.5-2.355-1.091-4.548-1.314l-3.987-.407 4.25-.168c2.882-.114 4.25-.616 4.25-1.559 0-1.393-5.431-2.581-8.141-1.78m16.404.383c-3.961 1.026-4.879 3.825-3.641 11.105.629 3.697 1.377 5.257 2.638 5.498 1.282.244 1.929-.509 2.382-2.775.342-1.711 1.463-3.561 2.49-4.111 2.256-1.207 2.467-4.762.331-5.582-.846-.324-2.421.21-3.5 1.187-2.322 2.101-2.677.322-.392-1.963 3.705-3.705 6.487-1.267 6.88 6.029.416 7.73.325 7.4 2.049 7.4 1.186 0 1.5-1.423 1.5-6.809 0-3.94-.527-7.472-1.25-8.384-1.606-2.023-5.384-2.659-9.487-1.595m-180.108 1.392c-1.565 1.096-2.059 2.124-1.561 3.25.4.905.993 3.86 1.317 6.567.956 7.989 3.089 7.044 3.089-1.369 0-7.69 1.031-9.176 4.922-7.094 1.779.952 2.078 2.054 2.078 7.661 0 4.792.335 6.437 1.25 6.135.798-.264 1.359-2.909 1.551-7.31.245-5.631-.019-7.13-1.441-8.17-2.421-1.77-8.46-1.592-11.205.33m33.31-.547c-1.042 1.686.43 5.943 2.054 5.943.815 0 1.481.45 1.481 1s-.659 1-1.465 1c-.805 0-1.976.955-2.6 2.122-.938 1.752-.778 2.48.922 4.18 1.798 1.798 2.4 1.902 4.765.824 2.088-.951 3.35-.966 5.524-.065 5.004 2.072 5.854.907 5.854-8.03 0-7.364-.166-8.031-2-8.031-1.778 0-2 .667-2 6 0 4.256-.378 6-1.3 6-2.284 0-3.7-2.296-3.7-6 0-1.98-.54-4.14-1.2-4.8-1.483-1.483-5.452-1.572-6.335-.143m55.778.1c-1.898 1.898-1.497 3.631 1.257 5.435 2.044 1.339 2.5 2.446 2.5 6.071v4.432l6.25-.297 6.25-.298.29-8.25c.271-7.673.151-8.25-1.704-8.25-1.767 0-2.028.771-2.29 6.75-.283 6.454-.405 6.75-2.796 6.75-2.359 0-2.528-.367-3-6.5-.464-6.037-.679-6.521-3.007-6.793-1.379-.161-3.066.266-3.75.95m40 0c-1.835 1.835-1.52 3.535.98 5.286l2.222 1.557-2.222 1.557c-4.506 3.155-1.506 8.804 3.471 6.537 2.02-.921 3.291-.929 5.452-.033 5.013 2.076 5.854.912 5.854-8.103 0-7.179-.2-8.067-1.75-7.771-1.404.267-1.809 1.567-2.048 6.565l-.297 6.232-2.401-1.573c-1.868-1.224-2.468-2.611-2.703-6.242-.267-4.143-.583-4.702-2.808-4.962-1.379-.161-3.066.266-3.75.95M68 214.559c0 .857.457 1.276 1.016.931.559-.346.758-1.047.441-1.559-.857-1.387-1.457-1.129-1.457.628m55.5-.559c-.34.55-.141 1 .441 1s1.059-.45 1.059-1-.198-1-.441-1-.719.45-1.059 1m39.5 0c0 .55.477 1 1.059 1s.781-.45.441-1-.816-1-1.059-1-.441.45-.441 1m51 4c0 .55.45 1 1 1s1-.45 1-1-.45-1-1-1-1 .45-1 1m-161.465.943c-.359.581-.099 1.057.577 1.057.677 0 2.099.786 3.161 1.747 1.862 1.685 1.918 1.658 1.579-.75-.371-2.63-4.076-4.062-5.317-2.054m143 0c-.359.581.023 1.057.849 1.057.827 0 2.231 1.012 3.121 2.25l1.619 2.25-.312-3c-.228-2.187-.896-3.083-2.468-3.307-1.185-.169-2.449.168-2.809.75M52.5 223c-.34.55-.141 1 .441 1S54 223.55 54 223s-.198-1-.441-1-.719.45-1.059 1m143 0c-.34.55-.141 1 .441 1s1.059-.45 1.059-1-.198-1-.441-1-.719.45-1.059 1M67 224c0 .55.423 1 .941 1s1.219-.45 1.559-1c.34-.55-.084-1-.941-1S67 223.45 67 224m96 0c0 .55.45 1 1 1s1-.45 1-1-.45-1-1-1-1 .45-1 1m23 0c0 .55.45 1 1 1s1-.45 1-1-.45-1-1-1-1 .45-1 1m-35.612 7.431c-.747 1.947 3.515 7.543 5.24 6.881 1.626-.623 1.786-3.669.337-6.378-1.208-2.257-4.78-2.579-5.577-.503M30.193 248.25c.287 3.979.497 4.25 3.283 4.25 2.329 0 3.181-.585 3.922-2.69 1.225-3.484-.607-5.81-4.578-5.81-2.835 0-2.924.145-2.627 4.25m85.546-3c-.739 1.946.379 7.795 1.373 7.181 1.161-.718 1.157-8.431-.005-8.431-.491 0-1.107.563-1.368 1.25M126 248.5c0 4.005.248 4.498 2.25 4.485 2.78-.019 4.195-.943 5.069-3.307 1.086-2.938-1.016-5.678-4.354-5.678-2.847 0-2.965.179-2.965 4.5m9.07-.191c-.043 2.967.313 4.572.93 4.191 1.194-.738 1.194-4.221 0-7-.645-1.5-.877-.798-.93 2.809m44.942-2.331c-1.528 2.854-.38 5.891 2.498 6.614 2.864.719 4.49-.133 4.49-2.351 0-1.276-.267-1.374-1.2-.441-1.677 1.677-3.473 1.495-4.21-.427-.989-2.576 1.213-4.549 3.631-3.255 1.576.844 1.915.785 1.568-.271-.764-2.322-5.514-2.23-6.777.131m24.696-.659c-.657 1.712.286 6.559 1.411 7.255.485.299.881-1.256.881-3.456 0-4.01-1.352-6.25-2.292-3.799m17.022-.569c-.585 1.132-.105 7.209.628 7.942.353.353.642-1.459.642-4.025 0-4.411-.391-5.617-1.27-3.917m-156.98.966c-2.45.371-2.739.819-2.65 4.1.086 3.176.195 3.34.794 1.189.87-3.128 4.106-4.024 4.106-1.137 0 1.108.45 2.292 1 2.632.604.373 1-.99 1-3.441 0-2.232-.338-3.992-.75-3.909-.412.082-1.987.337-3.5.566m32.935-.068c-.778.778.217 5.464 1.444 6.802.507.553.871-.805.871-3.25 0-3.916-.77-5.097-2.315-3.552M32 248.5c0 1.982.439 2.562 1.75 2.31.962-.186 1.75-1.225 1.75-2.31s-.788-2.124-1.75-2.31c-1.311-.252-1.75.328-1.75 2.31m8.2-1.3c-2.561 2.561.208 6.69 3.537 5.274 1.529-.65 1.431-.85-.737-1.512-2.39-.729-2.401-.767-.25-.862 2.571-.114 3.043-2.582.668-3.493-2.014-.773-1.816-.809-3.218.593m6.631.496c-.237.992-.169 3.154.151 4.804.463 2.385.781 2.692 1.55 1.5.532-.825 1.643-1.5 2.468-1.5 1 0 1.5-1 1.5-3 0-2.492-.443-3.051-2.619-3.304-1.856-.215-2.745.222-3.05 1.5m8.019.234a305.463 305.463 0 01-.25 3.237c-.055.641.534 1.378 1.309 1.636.969.323 1.214-.041.782-1.167-.346-.9-.192-1.636.34-1.636.533 0 .969.675.969 1.5s.479 1.5 1.063 1.5c.598 0 .926-1.424.75-3.25-.24-2.491-.838-3.325-2.563-3.57-1.677-.238-2.288.208-2.4 1.75m16.791-1.238C70.613 247.72 70.903 252 72 252c.55 0 1-.9 1-2s.45-2 1-2 1 .873 1 1.941.45 2.219 1 2.559c.567.351 1-.49 1-1.941 0-1.407.45-2.559 1-2.559s1 .9 1 2 .48 2 1.066 2c.587 0 .924-1.217.75-2.705-.28-2.396-.784-2.735-4.425-2.974-2.26-.149-4.397.018-4.75.371m11.479 1.084c-1.132 2.115.293 5.224 2.395 5.224 2.209 0 3.879-3.82 2.432-5.564-1.619-1.951-3.679-1.806-4.827.34m7.547-1.109C89.62 247.714 89.888 252 91 252c.55 0 1-1.35 1-3 0-3.107-.204-3.463-1.333-2.333m2.918 1.985c1.043 4.413 2.611 5.413 2.236 1.425-.176-1.883-.903-3.614-1.615-3.848-.952-.313-1.116.327-.621 2.423m14.489-.79c-1.445 2.699.878 5.605 3.752 4.693 3.898-1.237 2.379-6.555-1.873-6.555-.485 0-1.331.838-1.879 1.862M128 248.5c0 2.796 2.423 3.446 3.396.91.759-1.978-.062-3.41-1.955-3.41-.87 0-1.441.99-1.441 2.5m10.415-1.363c-.39.632.361 1.993 1.691 3.063l2.394 1.925-2.375-.669c-1.615-.456-2.156-.316-1.691.437.897 1.452 4.253 1.423 5.16-.045.391-.633-.118-1.758-1.132-2.5-1.015-.741-1.308-1.348-.653-1.348s1.191-.45 1.191-1c0-1.376-3.718-1.265-4.585.137m7.252-.47c-1.273 1.273-.658 5.122.915 5.726 2.629 1.009 3.173.721 3.868-2.048.825-3.291-2.564-5.897-4.783-3.678m7.329 1.844c-1.056 2.777-.609 4.489 1.17 4.489.576 0 .789-.675.472-1.5-.316-.825-.139-1.5.393-1.5.533 0 .969.675.969 1.5s.479 1.5 1.063 1.5c.597 0 .926-1.422.75-3.242-.409-4.23-3.39-5.001-4.817-1.247m7.671-1.844c-1.218 1.218-.689 3.333.833 3.333.825 0 1.5.436 1.5.969 0 .532-.675.709-1.5.393-.825-.317-1.5-.078-1.5.531 0 1.694 3.982 1.316 4.657-.441.342-.891-.203-2.166-1.282-3.002-1.826-1.417-1.825-1.437.039-.783 1.323.465 1.691.312 1.191-.497-.793-1.284-2.89-1.552-3.938-.503m6.263.917c-.952 1.148-1.025 2.042-.265 3.25 1.643 2.608 4.235 2.604 5.225-.01 1.534-4.052-2.239-6.518-4.96-3.24m22.454-.142c-.985 2.566.083 5.05 2.309 5.369 3.047.436 4.886-3.089 2.734-5.242-1.963-1.962-4.316-2.021-5.043-.127m7.616 2.051c0 2.201.399 3.378 1.016 2.997.559-.346.783-1.006.497-1.469-.767-1.241.55-4.1 1.592-3.456.492.304.895 1.741.895 3.194 0 1.898.305 2.336 1.085 1.556.596-.596.934-2.149.75-3.45-.245-1.732-1.07-2.45-3.085-2.681-2.552-.294-2.75-.056-2.75 3.309m12 .066c0 2.118.405 3.309 1 2.941.55-.34 1-1.491 1-2.559s.477-1.941 1.059-1.941.781-.45.441-1c-1.482-2.398-3.5-.923-3.5 2.559m5.709-2.935c-1.063 1.063-.853 5.169.3 5.882.555.342 1.931.33 3.058-.027 2.803-.89 2.322-5.852-.608-6.271-1.123-.161-2.36.027-2.75.416M56.5 248c-.34.55-.141 1 .441 1S58 248.55 58 248s-.198-1-.441-1-.719.45-1.059 1m98 0c-.34.55-.141 1 .441 1s1.059-.45 1.059-1-.198-1-.441-1-.719.45-1.059 1m-105.806.639c-.799.799.104 2.361 1.365 2.361.518 0 .941-.675.941-1.5 0-1.546-1.18-1.987-2.306-.861m60.973.028c-1.151 1.15-.729 2.333.833 2.333.825 0 1.5-.675 1.5-1.5 0-1.562-1.183-1.984-2.333-.833M191 249.5c0 .917.484 1.505 1.075 1.308.591-.197 1.075-.786 1.075-1.308s-.484-1.111-1.075-1.308c-.591-.197-1.075.391-1.075 1.308m24.736-.902c-.902.901.339 3.473 1.369 2.837.492-.304.895-1.201.895-1.994 0-1.473-1.191-1.916-2.264-.843M169 251.059c0 .582.45.781 1 .441s1-.816 1-1.059-.45-.441-1-.441-1 .477-1 1.059" fill="#1976D2" fill-rule="evenodd"/><path fill-opacity=".272" d="M123.75 5.723c1.787.222 4.713.222 6.5 0 1.787-.221.325-.403-3.25-.403s-5.037.182-3.25.403m-11 .939c.688.278 1.813.278 2.5 0 .688-.277.125-.504-1.25-.504s-1.937.227-1.25.504m26 0c.688.278 1.813.278 2.5 0 .688-.277.125-.504-1.25-.504s-1.937.227-1.25.504m-30.937 1.021c.721.289 1.584.253 1.916-.079.332-.332-.258-.568-1.312-.525-1.165.048-1.402.285-.604.604m37 0c.721.289 1.584.253 1.916-.079.332-.332-.258-.568-1.312-.525-1.165.048-1.402.285-.604.604M100.5 9c-2.548 1.095.081 1.095 3.5 0 2.01-.644 2.108-.806.5-.83-1.1-.016-2.9.357-4 .83M150 9c3.419 1.095 6.048 1.095 3.5 0-1.1-.473-2.9-.846-4-.83-1.608.024-1.51.186.5.83m7 2c.825.533 1.95.969 2.5.969s.325-.436-.5-.969c-.825-.533-1.95-.969-2.5-.969s-.325.436.5.969m-35 2.91c-2.441.694-2.424.726.75 1.375 2.469.505 3.25 1.189 3.25 2.845 0 2.137-.04 2.144-2.059.317-2.707-2.45-5.441-.862-5.441 3.162 0 2.182.47 2.891 1.917 2.891 1.054 0 2.033-.574 2.175-1.275.142-.701.029-.814-.25-.25-.654 1.319-3.342 1.339-3.342.025 0-.55.436-1 .969-1 .532 0 .709-.675.393-1.5-1.072-2.793 2.642-1.591 3.862 1.25 1.626 3.785 1.759 3.891 2.815 2.221 1.348-2.131 1.111-7.189-.431-9.221-.731-.963-1.504-1.705-1.718-1.65-.215.055-1.515.419-2.89.81m11.203 1.287c-.662.662-1.203 1.653-1.203 2.203 0 .556.533.467 1.2-.2.66-.66 2.052-1.2 3.094-1.2 1.706 0 1.825.52 1.198 5.25-.451 3.404-.354 4.898.276 4.25 1.256-1.293 2.25-7.864 1.392-9.201-1.102-1.719-4.679-2.38-5.957-1.102m-50.762 1.358c-1.83 1.467-1.798 1.487.559.365 3.061-1.458 3.628-1.92 2.358-1.92-.537 0-1.849.7-2.917 1.555M168 15.393c0 .216.698.661 1.552.989.89.341 1.291.173.941-.393-.587-.951-2.493-1.406-2.493-.596m-60.375 1.405c-.69 1.116.541 2.725 2.695 3.52 1.163.43 1.705 1.458 1.5 2.849-.537 3.654-2.603 3.179-4.787-1.102-1.14-2.236-2.551-4.065-3.135-4.065-.584 0-.052 1.688 1.18 3.75 3.206 5.363 3.489 5.576 6.42 4.84 2.72-.683 2.832-1.835.86-8.84-.497-1.764-3.818-2.432-4.733-.952m37.158 1.232c-1.995 1.663-1.704 2.226.967 1.87.412-.055.62-.558.46-1.119-.182-.641 1.023-.772 3.25-.354 4.312.808 4.613.143.573-1.266-2.446-.852-3.37-.699-5.25.869M109 18c0 .55.45 1 1 1s1-.45 1-1-.45-1-1-1-1 .45-1 1m63-.535c0 .255 1.012 1.004 2.25 1.664 2.04 1.087 2.122 1.043.878-.465-1.278-1.549-3.128-2.258-3.128-1.199m-94.559 2.09c-1.864 1.494-1.852 1.512.309.465 1.237-.6 2.25-1.3 2.25-1.555 0-.765-.519-.544-2.559 1.09m15.053 2.451c-.998 1.104-1.529 2.292-1.18 2.642.35.349 1.477-.403 2.505-1.673 1.2-1.481 2.463-2.081 3.525-1.673 1.932.741 2.183 3.771.456 5.498-1.57 1.57.405 3.719 2.633 2.864 1.978-.759 1.991-2.943.041-6.714-1.819-3.518-5.28-3.927-7.98-.944m56.354-1.121c2.022 1.282.951 4.569-1.608 4.935-1.701.242-2.24-.179-2.24-1.75 0-2.645-1.603-2.695-2.289-.071-.619 2.365-.308 2.611 4.416 3.497 3.275.614 3.671.443 4.242-1.83.812-3.237-.146-5.67-2.226-5.651-1.295.012-1.358.196-.295.87m8.1.678c-1.134 1.366-.974 1.482 1.268.919 3.428-.86 4.275.828 2.351 4.684-1.765 3.539-1.958 4.834-.719 4.834.467 0 1.604-1.913 2.528-4.25 1.639-4.145 1.627-4.293-.459-6-2.628-2.15-3.318-2.176-4.969-.187m20.552-.867c.55.539 3.773 3.074 7.162 5.633s8.965 7.694 12.39 11.412c3.426 3.717 5.273 5.351 4.106 3.63-2.863-4.221-17.059-17.412-21.269-19.763-1.864-1.041-2.939-1.451-2.389-.912M68 26.122c-3.485 3.055-3.486 3.059-.28.927 1.771-1.178 3.485-2.571 3.809-3.096.964-1.56.164-1.069-3.529 2.169m14.023.855c-1.089 1.089-1.715 2.662-1.393 3.5.729 1.901.872 1.895 3.991-.148 2.173-1.424 2.683-1.461 3.449-.25.495.782.906 2.039.915 2.793.012 1.089-.286 1.123-1.441.164-1.675-1.39-3.544-.587-3.544 1.523 0 1.688 2.323 1.874 5.066.406 2.351-1.259 2.442-2.795.34-5.796-1.489-2.126-1.75-2.174-3.948-.733-1.356.888-2.6 1.143-2.936.6-.32-.517.67-1.619 2.198-2.448 1.969-1.068 2.27-1.52 1.03-1.548-.963-.022-2.64.85-3.727 1.937m84.971.53c-1.054 1.27-.758 1.679 1.878 2.598 3.434 1.197 3.835 2.063 1.755 3.79-1.506 1.25-4.627.491-4.627-1.124 0-.559.748-.398 1.663.357 1.425 1.176 1.592 1.158 1.167-.128-.273-.825-1.246-1.645-2.163-1.823-2.816-.546-2.038 3.697.926 5.047 2.299 1.048 2.806.904 4.478-1.271 2.388-3.108 2.38-3.641-.071-4.953-1.1-.589-2-1.556-2-2.15 0-.624 1.055-.389 2.5.558 1.375.901 2.5 1.194 2.5.65 0-1.174-3.271-3.058-5.312-3.058-.794 0-2.006.678-2.694 1.507M98 28c0 .55.45 1 1 1s1-.45 1-1-.45-1-1-1-1 .45-1 1m-39 6.5c-2.429 2.475-4.191 4.5-3.916 4.5.275 0 2.487-2.025 4.916-4.5 2.429-2.475 4.191-4.5 3.916-4.5-.275 0-2.487 2.025-4.916 4.5m14.485-1.476c-.348.564-.319 2.476.066 4.25.696 3.214.691 3.219-1.389 1.355-2.286-2.05-5.162-1.582-5.162.84 0 .908.89 1.531 2.186 1.531 1.202 0 3.215.967 4.473 2.15 1.935 1.817 2.38 1.913 2.877.617.324-.844-.121-3.23-.987-5.304C73.431 33.393 74.523 32.74 78 37c1.565 1.918 3.133 3.2 3.485 2.849.715-.715-5.22-7.849-6.53-7.849-.46 0-1.122.461-1.47 1.024M85 34c0 .55.45 1 1 1s1-.45 1-1-.45-1-1-1-1 .45-1 1m93 .092c0 .601-.894 2.229-1.986 3.618-2.244 2.853-1.858 4.29 1.153 4.29 1.661 0 1.936-.453 1.451-2.386-.688-2.741 1.512-5.162 3.869-4.257 2.28.875 1.82 4.006-.975 6.631-1.901 1.787-2.226 2.652-1.377 3.675.61.735 1.677 1.337 2.371 1.337.693 0 1.496.9 1.784 2 .739 2.827 3.71 2.58 3.71-.309 0-1.27.661-3.182 1.468-4.25 2.524-3.337 1.667-3.945-1.408-.998-1.781 1.705-3.556 2.581-4.5 2.218-2.09-.802-1.965-1.985.44-4.161 2.572-2.328 2.525-3.933-.189-6.461-2.342-2.182-5.811-2.747-5.811-.947m-59.5 1.557c-15.294 2.45-26.193 7.973-37.111 18.804-9.695 9.618-15.257 19.994-17.961 33.503-4.285 21.407 3.749 45.266 20.148 59.837 6.705 5.957 19.032 12.455 27.884 14.697 7.613 1.929 23.461 1.942 30.816.026 23.4-6.095 41.008-23.617 47.247-47.016 2.095-7.858 2.14-23.229.091-31.093-6.079-23.333-23.263-40.918-45.953-47.024-5.572-1.499-20.293-2.514-25.161-1.734M68 39c0 .55.45 1 1 1s1-.45 1-1-.45-1-1-1-1 .45-1 1m108 1c0 .55.45 1 1 1s1-.45 1-1-.45-1-1-1-1 .45-1 1M51.75 42.536c-2.498 3.34-2.173 4.272.364 1.046 1.163-1.478 1.95-2.845 1.75-3.037-.2-.192-1.152.704-2.114 1.991m10.393 2.371c-1.006.625-1.053 1.03-.183 1.568 1.372.848 2.402.097 1.894-1.38-.208-.606-.914-.683-1.711-.188M206.9 51.322c2.151 3.752 4.232 7.127 4.625 7.5 1.491 1.413-4.412-9.456-6.425-11.832-1.161-1.369-.351.58 1.8 4.332M60 48c0 .55.477 1 1.059 1s.781-.45.441-1-.816-1-1.059-1-.441.45-.441 1m-13.477 2.5l-3.103 5.087c-.869 1.422-1.406 2.76-1.195 2.972.212.212 1.8-2.077 3.529-5.087 3.099-5.395 3.729-7.831.769-2.972m80.146-1.836c-.348.348-.379 1.642-.07 2.875.589 2.347-1.003 4.235-2.089 2.477-.345-.559-1.078-1.016-1.628-1.016-.55 0-.743.416-.428.925.693 1.123-1.438 6.075-2.615 6.075-.461 0-.853.788-.871 1.75-.017.962-.692 2.624-1.5 3.691-1.683 2.226-1.943 6.147-.468 7.059.55.34 1 1.881 1 3.424 0 1.544.958 4.024 2.128 5.512 1.788 2.273 1.947 3.103.994 5.195-.953 2.093-1.713 2.44-4.777 2.179-4.962-.422-6.561-3.028-3.569-5.816 1.223-1.14 2.224-2.75 2.224-3.578 0-2.054-4.494-6.4-6.705-6.485-.987-.038-6.321-.221-11.853-.406-10.826-.363-16.485-2.019-18.628-5.451-1.778-2.848-2.815-2.598-2.81.676.005 3.889 3.268 8.763 6.948 10.376 1.723.756 4.004 2.846 5.069 4.645 1.259 2.128 2.974 3.478 4.906 3.864 3.643.729 6.875 3.843 4.811 4.635-.741.285-1.933 2.29-2.648 4.457-1.168 3.54-1.09 4.353.771 8.001 2.474 4.848 8.653 8.272 14.93 8.272 4.096 0 4.144.041 3.143 2.674-1.359 3.574-.36 7.577 2.579 10.338 1.853 1.741 2.187 2.679 1.448 4.06-1.466 2.741-1.157 5.41.937 8.072 1.66 2.109 1.723 2.654.5 4.326-1.836 2.511-1.77 5.015.183 6.968 2.053 2.053 3.271 1.24 2.691-1.797-.253-1.324.032-2.711.634-3.083.722-.446 1.094.682 1.094 3.324 0 2.2-.45 4.278-1 4.618-1.47.908-1.214 1.684 1.614 4.901l2.55 2.901 2.267-2.445c1.969-2.123 2.204-3.215 1.783-8.294-.35-4.211-.167-5.652.65-5.147.625.386 1.136 2.011 1.136 3.612 0 2.182.377 2.765 1.509 2.33 2.42-.929 2.919-5.057.969-8.032-1.666-2.543-1.661-2.719.114-4.017 1.297-.948 1.881-2.694 1.94-5.792.048-2.584.76-5.182 1.706-6.227 2.468-2.727 3.777-6.966 3.138-10.161-.564-2.818-.489-2.873 4.003-2.963 2.518-.051 5.825-.741 7.349-1.534 3.987-2.074 7.626-6.25 6.722-7.712-.486-.788-.345-.973.395-.515 2.092 1.292 1.317-6.368-.968-9.578-2.397-3.366-1.977-4.074 3.45-5.809 2.378-.761 4.518-2.36 5.65-4.221 1.003-1.648 3.222-3.848 4.932-4.888 3.609-2.195 7.082-7.418 7.087-10.659.005-2.856-.162-2.831-3.805.572-3.687 3.444-10.476 5.006-22.191 5.105-6.621.056-9.053.481-11 1.921-3.278 2.425-3.778 6.494-1.035 8.415 3.939 2.759-.083 6.424-6.113 5.57-3.12-.442-3.61-4.075-.913-6.772 1.133-1.133 2.061-3.216 2.061-4.627 0-1.411.493-3.487 1.096-4.614 1.694-3.165.243-10.82-2.05-10.82-2.218 0-3.114-1.99-2.321-5.154.585-2.33.574-2.333-1.568-.441L130 58.31l-.032-3.405c-.032-3.439-2.13-7.409-3.299-6.241M185 49c0 .55.45 1 1 1s1-.45 1-1-.45-1-1-1-1 .45-1 1M66.443 50.418c-2.163 1.582-1.594 2.961.837 2.028C68.942 51.808 70.474 49 69.16 49c-.428 0-1.651.638-2.717 1.418m129.219-.419c2.434.981 3.698 3.9 2.754 6.36-1.008 2.626-2.416 1.897-2.416-1.252 0-3.102-2.034-4.549-5.048-3.592-3.266 1.037-3.584 5.485-.393 5.485 1.302 0 1.882-1.209 1.559-3.25-.065-.413.557-.75 1.382-.75 1.943 0 1.9 1.46-.135 4.566-.9 1.373-1.364 2.768-1.033 3.1 1.041 1.041 6.502-1.764 8.058-4.139 1.382-2.108 1.292-2.458-1.256-4.898-1.509-1.446-3.394-2.6-4.189-2.566-.795.035-.472.456.717.936M54.497 53.364c-1.82 2.777-1.705 5.734.247 6.384.684.228 1.685-.747 2.225-2.167 1.072-2.82 1.142-2.86 3.449-1.974 2.174.834 1.983 2.055-.418 2.683-2.42.633-2.619 2.535-.355 3.404 1.007.386 2.17-.088 3-1.223 1.966-2.689 1.679-4.213-1.143-6.061-2.383-1.562-2.585-1.529-4.414.726-1.054 1.3-2.252 2.029-2.662 1.62-.411-.409.072-1.649 1.074-2.756 1.002-1.107 1.56-2.274 1.24-2.593-.319-.319-1.328.561-2.243 1.957M59 60c0 .55.45 1 1 1s1-.45 1-1-.45-1-1-1-1 .45-1 1m127.547 3.739c-.353.919.036 1.295 1.124 1.084.915-.178 1.826-.81 2.024-1.406.54-1.622-2.523-1.308-3.148.322m17.823-1.058c.875 1.559-.942 2.596-4.767 2.719-2.788.09-3.082.395-2.893 3.01.327 4.52 1.61 5.122 6.744 3.161 2.5-.955 4.546-2.149 4.546-2.654 0-1.298-.578-1.173-5.004 1.085-3.872 1.975-3.937 1.976-4.96.066-1.583-2.959-1.322-3.25 2.592-2.896 4.269.386 6.853-2.163 4.453-4.394-.879-.817-1.135-.852-.711-.097m9.209 1.569c1.919 6.051 4.283 12.136 4.348 11.194C218.027 74 213.933 62 213.341 62c-.262 0-.155 1.013.238 2.25m-165.008.321c-.864.865-1.571 2.78-1.571 4.257 0 2.271.635 2.883 4.123 3.972 5.541 1.729 6.264.633 1.024-1.552-3.168-1.322-4.124-2.236-3.918-3.748.29-2.14 2.59-2.448 8.271-1.108 2.985.704 2.982.697-.5-1.3-4.281-2.456-5.414-2.536-7.429-.521M36 74c-.622 2.311-.936 4.398-.696 4.637.239.239.92-1.479 1.514-3.819.594-2.339.907-4.426.697-4.637-.211-.21-.893 1.508-1.515 3.819m182.079 4.583c.048 1.165.285 1.402.604.605.289-.722.253-1.585-.079-1.917-.332-.332-.568.258-.525 1.312M34.158 83c0 1.375.227 1.938.504 1.25.278-.687.278-1.812 0-2.5-.277-.687-.504-.125-.504 1.25m185 0c0 1.375.227 1.938.504 1.25.278-.687.278-1.812 0-2.5-.277-.687-.504-.125-.504 1.25m1.094 7.5c.011 2.2.216 2.982.455 1.738.239-1.244.23-3.044-.02-4s-.446.062-.435 2.262M207 89.441c0 .857.45 1.559 1 1.559s1-.423 1-.941-.45-1.219-1-1.559c-.55-.34-1 .084-1 .941M33.079 91.583c.048 1.165.285 1.402.604.605.289-.722.253-1.585-.079-1.917-.332-.332-.568.258-.525 1.312m68.569 4.102c-1.101 1.102-.715 5.015.602 6.095 1.57 1.286 7.672 2.858 14.5 3.734l5.25.674v-3.569c0-3.381-.13-3.52-2.465-2.632-1.558.592-2.684.582-3.061-.029-.328-.531-1.655-.7-2.949-.375-1.586.398-2.984-.042-4.294-1.352-2.103-2.103-6.537-3.592-7.583-2.546m46.852 1.036c-1.1.281-2.283.959-2.628 1.507-.926 1.468-9.079 2.732-10.998 1.705-1.343-.719-1.74-.302-2.11 2.221l-.456 3.106 9.044-.516c7.86-.448 9.286-.814 10.888-2.792 3.209-3.963 1.371-6.534-3.74-5.231M45.813 98.683c.721.289 1.584.253 1.916-.079.332-.332-.258-.568-1.312-.525-1.165.048-1.402.285-.604.604M47 103.441c0 .857.45 1.559 1 1.559s1-.423 1-.941-.45-1.219-1-1.559c-.55-.34-1 .084-1 .941m159.015.809c.013 1.819.201 1.963.985.75 1.253-1.939 1.253-3 0-3-.55 0-.993 1.013-.985 2.25m14.18 4.25c.02 1.65.244 2.204.498 1.231.254-.973.237-2.323-.037-3-.274-.677-.481.119-.461 1.769M34.158 116c0 1.375.227 1.938.504 1.25.278-.687.278-1.812 0-2.5-.277-.687-.504-.125-.504 1.25m184.921.583c.048 1.165.285 1.402.604.605.289-.722.253-1.585-.079-1.917-.332-.332-.568.258-.525 1.312M131 118.5c0 1.375.45 2.5 1 2.5s1-1.125 1-2.5-.45-2.5-1-2.5-1 1.125-1 2.5m-79.912-.773c-1.88.354-2.1.657-1 1.371 1.145.744.94 1.289-1.088 2.887-1.375 1.084-1.985 1.981-1.356 1.993.63.012 2.542-1.284 4.25-2.879 3.032-2.832 3.867-4.237 2.356-3.963-.413.075-1.835.341-3.162.591m69.991.856c.048 1.165.285 1.402.604.605.289-.722.253-1.585-.079-1.917-.332-.332-.568.258-.525 1.312m80.171-.183c2.744 2.071 2.204 4.59-1 4.663-2.4.056-2.496.166-.75.871 1.1.443 3.575 1.092 5.5 1.441 2.891.524 3.096.461 1.176-.365-2.992-1.288-2.523-4.543.638-4.427 3.196.118 1.401-1.209-3.314-2.45-3.381-.89-3.729-.849-2.25.267m-166.134 1.407c-.179 2.019 2.034 10.168 2.909 10.708.428.265.201-1.437-.505-3.782-.705-2.344-1.509-5.156-1.785-6.248-.277-1.092-.555-1.397-.619-.678m180.229 8.945c-1.645 4.811-3.327 9.648-3.737 10.748-.47 1.259-.172 1.074.805-.5 1.696-2.735 6.862-18.058 6.283-18.638-.198-.197-1.706 3.578-3.351 8.39m-162.408-4.713c-1.117.69-1.039.985.408 1.54.984.378 2.239.237 2.789-.313 1.341-1.341-1.345-2.372-3.197-1.227m143.166 4.276c-1.448 3.696-1.392 4.17.325 2.745 1.116-.926 2.121-.827 4.593.451 1.741.9 3.421 1.38 3.734 1.067.313-.313-.889-1.077-2.671-1.699-1.783-.621-3.609-2.086-4.06-3.254-.784-2.037-.864-2.009-1.921.69M52.75 130.299c-1.513.598-2.75 1.462-2.75 1.92 0 .687 5.494-1.573 6.917-2.846.73-.653-1.326-.196-4.167.926m3 3.818c-2.062 1.062-3.75 2.161-3.75 2.442 0 .281.867.047 1.928-.52 1.06-.568 2.577-.783 3.371-.478.816.313 1.726-.185 2.095-1.147.932-2.427.555-2.458-3.644-.297m4 4.455c-2.064 1.12-2.75 1.181-2.75.246 0-.82-.578-.668-1.69.444-.93.93-1.424 1.957-1.097 2.284.602.602 8.787-3.185 8.787-4.066 0-.65-.104-.615-3.25 1.092m135.75 1.903l4 2.465 1.775-2.112c.976-1.161 1.534-2.352 1.24-2.647-.295-.294-1.126.273-1.848 1.259-1.227 1.679-1.514 1.69-4.44.177-4.768-2.465-5.232-1.918-.727.858m-134.297 1.954c-4.999 3.535-5.182 4.116-.461 1.459 2.334-1.314 4.246-2.726 4.25-3.138.011-1.003-.007-.995-3.789 1.679M188 143.788c0 .433 1.332 2.346 2.959 4.25 2.75 3.217 2.963 3.3 3 1.18.026-1.415.877-2.592 2.239-3.096 2.138-.79 2.125-.827-.45-1.319-1.457-.279-2.618-.236-2.58.095.295 2.573-.239 3.288-1.609 2.151-.792-.657-1.194-1.837-.893-2.622.335-.871-.078-1.427-1.059-1.427-.884 0-1.607.354-1.607.788m-122.885 1.12c-.945.599-1.165 1.755-.692 3.64.457 1.821.247 3.076-.615 3.683-1.016.716-.974.824.192.486.992-.287 1.417-1.48 1.254-3.519-.287-3.589 1.621-5.393 2.43-2.299.302 1.156.947 2.101 1.433 2.101 1.149 0 1.114-.7-.152-3.066-1.148-2.144-1.808-2.32-3.85-1.026m140.382 5.097c-3.593 5.914-16.657 20.03-23.497 25.388l-3.5 2.742 3.5-2.271c8.284-5.373 22.364-20.872 26.902-29.614 2.344-4.515.146-2.091-3.405 3.755M60 149.941c0 1.068.385 2.179.856 2.47.47.291.643-.583.383-1.941-.564-2.951-1.239-3.239-1.239-.529m122.162.171c-1.19 1.906-.994 2.389 2.01 4.959 4.014 3.435 4.055 3.441 6.328.929 2.043-2.257 1.42-2.592-1.468-.788-2.516 1.571-3.802.251-2.222-2.28 1.134-1.815 1.073-1.876-.742-.742-2.537 1.584-3.85.292-2.272-2.235.672-1.075.875-1.955.453-1.955s-1.361.95-2.087 2.112M72 151.54c0 1.018-1.237 3.225-2.75 4.905L66.5 159.5l3-2.653c1.65-1.459 3.837-2.809 4.86-3 1.755-.327 1.741-.455-.25-2.252-2.033-1.836-2.11-1.838-2.11-.055m-24-.162c0 .207.788.995 1.75 1.75 1.586 1.243 1.621 1.208.378-.378-1.307-1.666-2.128-2.195-2.128-1.372m130 3.3c0 .507.54 1.462 1.2 2.122 1.999 1.999-.68 4.006-3.225 2.416-3.234-2.019-2.247.14 1.754 3.838 2.05 1.895 2.868 2.419 1.817 1.165-1.778-2.121-1.796-2.397-.26-3.933s1.808-1.517 3.872.281l2.22 1.933-2.142-3.089c-2.485-3.582-5.236-6.069-5.236-4.733m-127 .7c0 .207.788.995 1.75 1.75 1.586 1.243 1.621 1.208.378-.378-1.307-1.666-2.128-2.195-2.128-1.372m23.562 4.893c-2.373 3.416-2.505 3.852-.689 2.269 1.917-1.671 2.384-1.745 3.165-.5.504.803.653 2.304.332 3.335-.381 1.222-.199 1.637.523 1.191 1.448-.895 1.406-3.115-.105-5.534-1.412-2.261-.572-3.547 1.738-2.66 1.121.43 1.406 1.266.936 2.748-.455 1.434-.315 1.907.431 1.446 1.642-1.015 1.345-3.041-.722-4.911-1.006-.91-2.018-1.645-2.25-1.634-.231.012-1.743 1.925-3.359 4.25M55.5 161c.995 1.1 2.035 2 2.31 2 .275 0-.315-.9-1.31-2-.995-1.1-2.035-2-2.31-2-.275 0 .315.9 1.31 2m29.289 4c-.34 1.925-.967 4.4-1.393 5.5-.526 1.36.058 1.041 1.826-.996 1.429-1.648 2.241-3.223 1.804-3.5-.437-.277-.98-1.404-1.207-2.504-.29-1.407-.595-.963-1.03 1.5m77.706.648c-3.12 3.12 1.76 10.356 5.598 8.302 1.049-.561 1.907-1.78 1.907-2.708 0-1.334-.335-1.208-1.601.599-1.537 2.194-1.679 2.215-3.547.525-2.468-2.234-2.179-7.005.398-6.572 2.129.357 2.305-.367.279-1.145-.809-.31-2.174.139-3.034.999M157.116 169c-.018.825.83 3.075 1.884 5 2.437 4.452 2.437 2.765 0-2.5-1.018-2.2-1.866-3.325-1.884-2.5m-92.205 1.316c1.541 1.941 7.089 6.117 7.089 5.336 0-.266-1.912-1.976-4.25-3.799s-3.615-2.515-2.839-1.537m33.084.919c-2.261 2.427-2.359 6.827-.169 7.547 1.083.355 1.096.065.071-1.575-1.043-1.671-.961-2.46.487-4.671.959-1.463 2.277-2.485 2.93-2.271 1.981.65 1.988 5.731.011 8.073-1.821 2.158-1.821 2.158.325.347 2.857-2.41 3.45-5.097 1.683-7.62-1.839-2.626-2.76-2.596-5.338.17m52.66 4.265c1 2.936 2.109 4.489 3.189 4.47 1.528-.028 1.529-.105.02-.986-.9-.526-1.933-2.537-2.295-4.47-.363-1.933-1.062-3.514-1.554-3.514-.491 0-.204 2.025.64 4.5m-42.679-2.75c-.013.412-.416 2.438-.895 4.5-.501 2.159-.496 3.75.012 3.75.486 0 1.173-1.811 1.527-4.026.551-3.448.93-3.934 2.637-3.392 1.322.419 1.763.259 1.309-.475-.763-1.236-4.553-1.53-4.59-.357m33.701-.057c-1.019.269-1.596 1.074-1.309 1.823.283.738.816 2.949 1.185 4.913.716 3.82.772 3.859 4.197 2.941 2.65-.71 2.953-3.544.589-5.498-1.521-1.257-1.542-1.181-.25.909 1.225 1.98 1.214 2.406-.089 3.234-2.361 1.502-2.7 1.224-3.343-2.741-.718-4.427.531-6.19 2.963-4.182 1.478 1.22 1.639 1.208 1.21-.092-.537-1.625-2.279-2.067-5.153-1.307M122 178.667c0 2.566.298 4.368.662 4.004.364-.364.603-2.239.531-4.167-.095-2.507.295-3.504 1.369-3.504 2.065 0 3.045 3.002 1.334 4.086-.905.572-.977.889-.205.899 1.742.022 2.529-1.718 1.806-3.994-.403-1.269-1.514-1.991-3.064-1.991-2.23 0-2.433.39-2.433 4.667m14.333-.667c.144 3.889-.105 4.5-1.833 4.5-1.565 0-2.132-.869-2.608-4l-.608-4-.127 3.5c-.164 4.539.999 6.256 3.956 5.837 2.725-.385 3.604-3.818 2.016-7.876-.821-2.096-.939-1.793-.796 2.039m36.167 3c-1.65 1.093-2.487 1.99-1.861 1.993 1.093.007 6.388-3.898 5.361-3.953-.275-.015-1.85.867-3.5 1.96m-92.059.445c1.068.855 2.38 1.555 2.917 1.555 1.27 0 .703-.462-2.358-1.92-2.357-1.122-2.389-1.102-.559.365m19.372 8.238c.721.289 1.584.253 1.916-.079.332-.332-.258-.568-1.312-.525-1.165.048-1.402.285-.604.604m49 1c.721.289 1.584.253 1.916-.079.332-.332-.258-.568-1.312-.525-1.165.048-1.402.285-.604.604m31.937 11.683c-2.299 1.78-2.218 3.278.213 3.914 1.756.459 1.992 1.547 2.25 10.367.266 9.12.442 9.875 2.375 10.151 4.316.617 5.553-5.005 1.343-6.106-1.694-.443-1.931-1.436-1.931-8.098 0-6.261-.278-7.594-1.583-7.594-.871 0-1.385-.562-1.143-1.25.434-1.229 1.574-1.375 4.91-.627.927.207 1.605-.073 1.508-.623-.275-1.551-5.986-1.647-7.942-.134M33.893 212.457c-2.402 1.342-2.573 1.875-2.175 6.75.534 6.531.913 7.793 2.342 7.793.752 0 1.01-2.223.781-6.75l-.341-6.75h7l.296 6.75c.223 5.104.65 6.75 1.75 6.75 1.874 0 2.041-10.83.204-13.295-1.757-2.359-6.742-2.99-9.857-1.248m17.199.451c-1.15 1.15-2.092 3.041-2.092 4.2 0 1.798.403 2.008 2.731 1.423C57.216 217.155 58 217.526 58 221.5c0 3.791-1.443 4.737-2.29 1.5-.632-2.419-4.235-2.681-5.12-.373-.942 2.453 1.253 4.373 4.997 4.373 3.908 0 5.413-2.068 5.413-7.434V216h-4.583c-3.228 0-4.457-.37-4.157-1.25.235-.687 2.034-1.25 3.998-1.25 1.965 0 3.91-.338 4.324-.75.413-.412-.111-.756-1.165-.764-1.055-.007-2.888-.274-4.075-.592-1.428-.383-2.864.128-4.25 1.514m16.158-1.246c-2.085.842-1.513 5.457.75 6.048 2.73.714 2.512 2.145-.5 3.29-2.594.986-2.919 1.744-1.893 4.418.72 1.877 4.483 2.092 6.218.357.967-.967 1.639-.967 3.186 0 1.079.674 2.868 1.225 3.975 1.225 1.838 0 2.014-.65 2.014-7.441 0-4.093-.45-7.719-1-8.059-.628-.388-1 1.823-1 5.941 0 7.069-.732 7.836-4.777 5.002-1.624-1.137-2.223-2.565-2.223-5.3 0-2.059-.54-4.283-1.2-4.943-1.279-1.279-1.595-1.327-3.55-.538m20.142 1.855c-1.455 1.456-2.316 3.247-2.041 4.25.261.953.759 3.421 1.107 5.483.766 4.543 3.113 4.979 4.042.75.362-1.65 1.128-3 1.702-3 .648 0 .585-.551-.166-1.456-.664-.801-.905-2.039-.535-2.75.37-.712-.256-.169-1.392 1.206l-2.065 2.5-.022-2.628c-.028-3.35 2.09-5.104 5.668-4.694 2.736.314 2.818.499 3.106 7.072.223 5.104.65 6.75 1.75 6.75 1.122 0 1.454-1.473 1.454-6.443 0-5.525-.317-6.666-2.223-8-3.311-2.32-7.491-1.934-10.385.96m18.858-1.012c-2.262 1.617-3.084 4.495-1.285 4.495.53 0 1.461-.927 2.067-2.06.777-1.451 1.895-1.968 3.785-1.75 4.025.465 4.341 5.312.543 8.34-2.418 1.928-2.618 2.455-1.458 3.852 1.546 1.862 4.658 2.138 5.669.502.98-1.584.763-11.95-.271-12.984-1.797-1.797-6.785-2.015-9.05-.395m15.95-.305c-1.762 1.762-1.467 3.616.8 5.032 1.491.932 2 2.332 2 5.509V227h12v-8.2c0-9.484-1.716-9.718-2.195-.3-.303 5.966-.324 6.002-3.555 6.313l-3.25.314v-5.492c0-6.941-2.758-10.477-5.8-7.435m22.3-.055c-3.719 2.202-3.749 2.389-1.921 11.855.743 3.844 3.291 3.9 4.053.089.339-1.696 1.373-3.118 2.475-3.407 1.885-.493 2.768-4.682.987-4.682-.499 0-.656.96-.349 2.134.404 1.543.17 1.998-.843 1.642-.771-.27-1.34-1.225-1.265-2.123.075-.897-.262-1.385-.75-1.083-.488.301-.887 1.196-.887 1.989 0 .793-.45 1.441-1 1.441-1.529 0-1.189-4.598.44-5.95.791-.657 2.704-1.049 4.25-.872 2.694.309 2.831.588 3.31 6.744.301 3.864.998 6.586 1.75 6.833 1.865.614 1.716-12.124-.161-13.681-2.108-1.75-7.816-2.276-10.089-.929m18.25-.065c-2.351 1.369-2.207 3.486.358 5.283 2.159 1.512 1.831 3.637-.56 3.637-1.876 0-2.807 2.983-1.443 4.627 1.396 1.682 4.091 1.777 5.668.2.897-.897 1.778-.897 3.747 0 5.04 2.297 5.48 1.794 5.48-6.268 0-4.093-.45-7.719-1-8.059-.628-.388-1 1.823-1 5.941 0 6.875-.769 7.81-4.25 5.167-1.092-.829-1.75-2.671-1.75-4.897 0-2.759-2.057-6.896-3.321-6.681-.099.017-.966.489-1.929 1.05M194 213c-3.562 3.562-2.088 7.609 1.861 5.107 2.725-1.727 5.139-.078 5.139 3.51 0 3.697-1.455 4.576-2.29 1.383-.639-2.445-4.505-2.699-5.404-.355-1.288 3.357 6.653 5.996 9.494 3.155.66-.66 1.2-3.135 1.2-5.5V216h-4.583c-5.468 0-5.765-2.403-.329-2.664 5.17-.248 5.638-.463 2.912-1.336-4.129-1.322-5.899-1.101-8 1m17.338-1.048c-2.833 1.203-3.436 3.464-2.547 9.536.524 3.578 1.222 5.083 2.47 5.324 1.192.229 1.739-.305 1.739-1.698 0-1.118 1.224-3.168 2.719-4.554 2.015-1.869 2.428-2.813 1.593-3.648-.834-.834-1.085-.673-.969.624.086.962-.474 1.97-1.245 2.24-1.013.356-1.247-.099-.843-1.642.736-2.815-.646-2.738-2.079.116-1.035 2.062-1.111 1.958-.903-1.25.207-3.195.522-3.528 3.622-3.824 4.303-.411 5.07.819 5.09 8.157.01 4.033.379 5.712 1.195 5.44 1.672-.557 2.123-10.976.568-13.103-1.492-2.04-7.369-3.01-10.41-1.718M67 214.5c0 .825.675 1.5 1.5 1.5s1.5-.675 1.5-1.5-.675-1.5-1.5-1.5-1.5.675-1.5 1.5m55.543-.569c-.74 1.197 1.141 2.382 2.473 1.559 1.119-.691.384-2.49-1.016-2.49-.485 0-1.141.419-1.457.931m39.675.223c.519 1.558 2.756 1.83 2.835.346.029-.55-.698-1.155-1.615-1.346-1.043-.215-1.5.159-1.22 1m-68.487 3.926c.354 1.352.807 1.806 1.057 1.057.24-.722-.038-1.787-.62-2.369-.742-.742-.872-.351-.437 1.312M52 223.5c0 .917.484 1.505 1.075 1.308.591-.197 1.075-.786 1.075-1.308s-.484-1.111-1.075-1.308c-.591-.197-1.075.391-1.075 1.308m15.177.053c.452 2.172 2.227 2.305 2.633.197.21-1.095-.28-1.75-1.31-1.75-.961 0-1.512.647-1.323 1.553M111.5 223c-.399.646-.276 1.624.274 2.174.667.667 1.242.609 1.726-.174.399-.646.276-1.624-.274-2.174-.667-.667-1.242-.609-1.726.174m50.677.667c.486 2.509 2.823 2.853 2.823.416 0-1.228-.646-2.083-1.573-2.083-.932 0-1.442.68-1.25 1.667M185.5 223c-.399.646-.276 1.624.274 2.174.667.667 1.242.609 1.726-.174.399-.646.276-1.624-.274-2.174-.667-.667-1.242-.609-1.726.174m9.5.5c0 .825.675 1.5 1.5 1.5s1.5-.675 1.5-1.5-.675-1.5-1.5-1.5-1.5.675-1.5 1.5m-41.5 9.835c0 1.741.45 3.39 1 3.665 1.516.758 1.791-4.514.301-5.75-1.021-.847-1.301-.398-1.301 2.085m-2.421-.752c.048 1.165.285 1.402.604.605.289-.722.253-1.585-.079-1.917-.332-.332-.568.258-.525 1.312M126 248c0 2.2.338 3.999.75 3.997.412-.002.772-1.802.799-4 .027-2.198-.311-3.997-.75-3.997-.44 0-.799 1.8-.799 4m-90.5.5c0 1.82.337 3.1.75 2.845.413-.254.75-1.535.75-2.845 0-1.31-.337-2.591-.75-2.845-.413-.255-.75 1.025-.75 2.845m80.5-.333c0 3.641.437 3.509 1.378-.417.392-1.633.246-2.75-.359-2.75-.56 0-1.019 1.425-1.019 3.167m15.825-.493c.426 2.093.678 2.345.969.97.217-1.021-.043-2.293-.576-2.826-.626-.626-.766.031-.393 1.856m48.842-2.007c-.908.907-.846 5.104.083 5.678.412.255.75-1.068.75-2.94 0-1.873-.037-3.405-.083-3.405-.046 0-.384.3-.75.667M205 247.941c0 1.682.173 3.059.383 3.059.849 0 1.288-5.085.483-5.583-.476-.294-.866.842-.866 2.524m17.252.559c.011 2.2.216 2.982.455 1.738.239-1.244.23-3.044-.02-4s-.446.062-.435 2.262M67 247c0 .55.45 1 1 1s1-.45 1-1-.45-1-1-1-1 .45-1 1m31 0c0 .55.45 1 1 1s1-.45 1-1-.45-1-1-1-1 .45-1 1m-46.5 2.5c0 1.27.337 2.1.75 1.845.413-.254.75-1.085.75-1.845s-.337-1.591-.75-1.845c-.413-.255-.75.575-.75 1.845m10.658-.5c0 1.375.227 1.938.504 1.25.278-.687.278-1.812 0-2.5-.277-.687-.504-.125-.504 1.25m13.342-1c.34.55.816 1 1.059 1s.441-.45.441-1-.477-1-1.059-1-.781.45-.441 1m59.695 1.5c.02 1.65.244 2.204.498 1.231.254-.973.237-2.323-.037-3-.274-.677-.481.119-.461 1.769m10.264-1.433c-.363.586-.445 1.281-.183 1.543s.743-.218 1.069-1.067c.676-1.762.1-2.072-.886-.476M149 248c0 .55.477 1 1.059 1s.781-.45.441-1-.816-1-1.059-1-.441.45-.441 1m7.684-.25c-.238.412-.072 1.65.371 2.75.702 1.746.813 1.651.875-.75.069-2.713-.399-3.464-1.246-2m32.652.817c-.331.862-.204 1.965.281 2.45.511.511.883-.151.883-1.567 0-2.839-.32-3.082-1.164-.883m4.228-.274c.376.986.935 1.541 1.243 1.233.308-.307.001-1.114-.683-1.793-.988-.98-1.102-.865-.56.56m3.631 1.207c.02 1.65.244 2.204.498 1.231.254-.973.237-2.323-.037-3-.274-.677-.481.119-.461 1.769m3.963-.5c0 1.375.227 1.938.504 1.25.278-.687.278-1.812 0-2.5-.277-.687-.504-.125-.504 1.25m7.842-.5c0 .825.177 1.5.393 1.5.216 0 .652-.675.969-1.5.316-.825.139-1.5-.393-1.5-.533 0-.969.675-.969 1.5m-150.375.298c-.271.439-.08 1.451.426 2.25.717 1.134.922.959.934-.798.015-2.313-.493-2.856-1.36-1.452m24.454.785c.048 1.165.285 1.402.604.605.289-.722.253-1.585-.079-1.917-.332-.332-.568.258-.525 1.312m25 0c.048 1.165.285 1.402.604.605.289-.722.253-1.585-.079-1.917-.332-.332-.568.258-.525 1.312m59 0c.048 1.165.285 1.402.604.605.289-.722.253-1.585-.079-1.917-.332-.332-.568.258-.525 1.312m47 0c.048 1.165.285 1.402.604.605.289-.722.253-1.585-.079-1.917-.332-.332-.568.258-.525 1.312m-183.515.71c.376.986.935 1.541 1.243 1.233.308-.307.001-1.114-.683-1.793-.988-.98-1.102-.865-.56.56" fill="#1976D2" fill-rule="evenodd"/></svg>